<svg width="1440" height="30" viewBox="0 0 1440 30" fill="none" xmlns="http://www.w3.org/2000/svg">
<rect width="1440" height="30" fill="black"/>
<path d="M33.7285 7.63477H35.1738V13.6602H42.4785V7.63477H43.9238V22H42.4785V15.0664H35.1738V22H33.7285V7.63477ZM52.2246 11.1016C53.8587 11.1016 55.2129 11.694 56.2871 12.8789C57.2637 13.9596 57.752 15.2389 57.752 16.7168C57.752 18.2012 57.2344 19.5 56.1992 20.6133C55.1706 21.7201 53.8457 22.2734 52.2246 22.2734C50.597 22.2734 49.2656 21.7201 48.2305 20.6133C47.2018 19.5 46.6875 18.2012 46.6875 16.7168C46.6875 15.2454 47.1758 13.9694 48.1523 12.8887C49.2266 11.6973 50.584 11.1016 52.2246 11.1016ZM52.2246 12.4395C51.0918 12.4395 50.1185 12.8594 49.3047 13.6992C48.4909 14.5391 48.084 15.5547 48.084 16.7461C48.084 17.5143 48.2695 18.2305 48.6406 18.8945C49.0117 19.5586 49.513 20.0729 50.1445 20.4375C50.776 20.7956 51.4694 20.9746 52.2246 20.9746C52.9798 20.9746 53.6732 20.7956 54.3047 20.4375C54.9362 20.0729 55.4375 19.5586 55.8086 18.8945C56.1797 18.2305 56.3652 17.5143 56.3652 16.7461C56.3652 15.5547 55.9551 14.5391 55.1348 13.6992C54.321 12.8594 53.3509 12.4395 52.2246 12.4395ZM60.291 11.375H61.6484V13.2109C62.1237 12.5339 62.612 12.0391 63.1133 11.7266C63.8034 11.3099 64.5293 11.1016 65.291 11.1016C65.8053 11.1016 66.2936 11.2025 66.7559 11.4043C67.2181 11.6061 67.5957 11.8763 67.8887 12.2148C68.1816 12.5469 68.4355 13.0254 68.6504 13.6504C69.1061 12.8171 69.6758 12.1855 70.3594 11.7559C71.043 11.3197 71.7786 11.1016 72.5664 11.1016C73.3021 11.1016 73.9499 11.2871 74.5098 11.6582C75.0762 12.0293 75.4961 12.5469 75.7695 13.2109C76.043 13.875 76.1797 14.8711 76.1797 16.1992V22H74.7832V16.1992C74.7832 15.0599 74.7018 14.2786 74.5391 13.8555C74.3763 13.4258 74.0964 13.0807 73.6992 12.8203C73.3086 12.5599 72.8398 12.4297 72.293 12.4297C71.6289 12.4297 71.0202 12.625 70.4668 13.0156C69.9199 13.4062 69.5195 13.9271 69.2656 14.5781C69.0117 15.2292 68.8848 16.3164 68.8848 17.8398V22H67.5273V16.5605C67.5273 15.278 67.446 14.4089 67.2832 13.9531C67.127 13.4909 66.8503 13.123 66.4531 12.8496C66.056 12.5697 65.584 12.4297 65.0371 12.4297C64.4056 12.4297 63.8132 12.6217 63.2598 13.0059C62.7129 13.3835 62.306 13.8945 62.0391 14.5391C61.7786 15.1836 61.6484 16.1699 61.6484 17.498V22H60.291V11.375ZM88.0156 18.4746L89.168 19.0801C88.7904 19.8223 88.3542 20.4212 87.8594 20.877C87.3646 21.3327 86.8079 21.681 86.1895 21.9219C85.571 22.1562 84.8711 22.2734 84.0898 22.2734C82.3581 22.2734 81.0039 21.707 80.0273 20.5742C79.0508 19.4349 78.5625 18.1491 78.5625 16.7168C78.5625 15.3691 78.9759 14.168 79.8027 13.1133C80.8509 11.7721 82.2539 11.1016 84.0117 11.1016C85.8216 11.1016 87.2669 11.7884 88.3477 13.1621C89.1159 14.1322 89.5065 15.3431 89.5195 16.7949H79.9688C79.9948 18.0319 80.3887 19.0475 81.1504 19.8418C81.9121 20.6296 82.8529 21.0234 83.9727 21.0234C84.513 21.0234 85.0371 20.929 85.5449 20.7402C86.0592 20.5514 86.4954 20.3008 86.8535 19.9883C87.2116 19.6758 87.599 19.1712 88.0156 18.4746ZM88.0156 15.6133C87.8333 14.8841 87.5664 14.3014 87.2148 13.8652C86.8698 13.429 86.4108 13.0775 85.8379 12.8105C85.265 12.5436 84.6628 12.4102 84.0312 12.4102C82.9896 12.4102 82.0944 12.7454 81.3457 13.416C80.7988 13.9043 80.3854 14.6367 80.1055 15.6133H88.0156Z" fill="white"/>
<path d="M135.758 7.63477H143.99V9.05078H137.193V13.543H143.932V14.9492H137.193V20.584H143.932V22H135.758V7.63477ZM151.588 12.5371L150.709 13.4453C149.98 12.7357 149.267 12.3809 148.57 12.3809C148.128 12.3809 147.747 12.5273 147.428 12.8203C147.115 13.1133 146.959 13.4551 146.959 13.8457C146.959 14.1908 147.089 14.5195 147.35 14.832C147.61 15.151 148.157 15.5254 148.99 15.9551C150.006 16.4824 150.696 16.9902 151.061 17.4785C151.419 17.9733 151.598 18.5299 151.598 19.1484C151.598 20.0208 151.292 20.7598 150.68 21.3652C150.068 21.9707 149.303 22.2734 148.385 22.2734C147.773 22.2734 147.187 22.14 146.627 21.873C146.074 21.6061 145.615 21.2383 145.25 20.7695L146.109 19.793C146.806 20.5807 147.545 20.9746 148.326 20.9746C148.873 20.9746 149.339 20.7988 149.723 20.4473C150.107 20.0957 150.299 19.6823 150.299 19.207C150.299 18.8164 150.172 18.4681 149.918 18.1621C149.664 17.8626 149.091 17.485 148.199 17.0293C147.242 16.5345 146.591 16.0462 146.246 15.5645C145.901 15.0827 145.729 14.5326 145.729 13.9141C145.729 13.1068 146.002 12.4362 146.549 11.9023C147.102 11.3685 147.799 11.1016 148.639 11.1016C149.615 11.1016 150.598 11.5801 151.588 12.5371ZM155.211 7.42969H156.588V11.375H158.756V12.5469H156.588V22H155.211V12.5469H153.346V11.375H155.211V7.42969ZM160.279 11.375H161.676V12.9277C162.092 12.3158 162.532 11.86 162.994 11.5605C163.456 11.2546 163.938 11.1016 164.439 11.1016C164.817 11.1016 165.221 11.222 165.65 11.4629L164.938 12.6152C164.651 12.4915 164.41 12.4297 164.215 12.4297C163.759 12.4297 163.32 12.6185 162.896 12.9961C162.473 13.3672 162.151 13.9466 161.93 14.7344C161.76 15.3398 161.676 16.5638 161.676 18.4062V22H160.279V11.375ZM177.398 11.375V22H176.051V20.1738C175.478 20.8704 174.833 21.3945 174.117 21.7461C173.408 22.0977 172.63 22.2734 171.783 22.2734C170.279 22.2734 168.993 21.7298 167.926 20.6426C166.865 19.5488 166.334 18.2207 166.334 16.6582C166.334 15.1283 166.871 13.8197 167.945 12.7324C169.02 11.6452 170.312 11.1016 171.822 11.1016C172.695 11.1016 173.482 11.2871 174.186 11.6582C174.895 12.0293 175.517 12.5859 176.051 13.3281V11.375H177.398ZM171.93 12.4199C171.168 12.4199 170.465 12.6087 169.82 12.9863C169.176 13.3574 168.661 13.8815 168.277 14.5586C167.9 15.2357 167.711 15.9518 167.711 16.707C167.711 17.4557 167.903 18.1719 168.287 18.8555C168.671 19.5391 169.186 20.0729 169.83 20.457C170.481 20.8346 171.178 21.0234 171.92 21.0234C172.669 21.0234 173.378 20.8346 174.049 20.457C174.719 20.0794 175.234 19.5684 175.592 18.9238C175.956 18.2793 176.139 17.5534 176.139 16.7461C176.139 15.5156 175.732 14.487 174.918 13.6602C174.111 12.8333 173.115 12.4199 171.93 12.4199ZM181.676 7.42969H183.053V11.375H185.221V12.5469H183.053V22H181.676V12.5469H179.811V11.375H181.676V7.42969ZM196.207 18.4746L197.359 19.0801C196.982 19.8223 196.546 20.4212 196.051 20.877C195.556 21.3327 194.999 21.681 194.381 21.9219C193.762 22.1562 193.062 22.2734 192.281 22.2734C190.549 22.2734 189.195 21.707 188.219 20.5742C187.242 19.4349 186.754 18.1491 186.754 16.7168C186.754 15.3691 187.167 14.168 187.994 13.1133C189.042 11.7721 190.445 11.1016 192.203 11.1016C194.013 11.1016 195.458 11.7884 196.539 13.1621C197.307 14.1322 197.698 15.3431 197.711 16.7949H188.16C188.186 18.0319 188.58 19.0475 189.342 19.8418C190.104 20.6296 191.044 21.0234 192.164 21.0234C192.704 21.0234 193.229 20.929 193.736 20.7402C194.251 20.5514 194.687 20.3008 195.045 19.9883C195.403 19.6758 195.79 19.1712 196.207 18.4746ZM196.207 15.6133C196.025 14.8841 195.758 14.3014 195.406 13.8652C195.061 13.429 194.602 13.0775 194.029 12.8105C193.456 12.5436 192.854 12.4102 192.223 12.4102C191.181 12.4102 190.286 12.7454 189.537 13.416C188.99 13.9043 188.577 14.6367 188.297 15.6133H196.207ZM209.42 11.375H210.797V19.8418C210.797 21.3327 210.667 22.4232 210.406 23.1133C210.048 24.0898 209.426 24.8418 208.541 25.3691C207.656 25.8965 206.591 26.1602 205.348 26.1602C204.436 26.1602 203.616 26.0299 202.887 25.7695C202.164 25.5156 201.575 25.1706 201.119 24.7344C200.663 24.3047 200.243 23.6732 199.859 22.8398H201.344C201.747 23.543 202.268 24.0638 202.906 24.4023C203.544 24.7409 204.335 24.9102 205.279 24.9102C206.21 24.9102 206.995 24.7344 207.633 24.3828C208.277 24.0378 208.736 23.6016 209.01 23.0742C209.283 22.5469 209.42 21.6973 209.42 20.5254V19.9785C208.906 20.6296 208.277 21.1309 207.535 21.4824C206.793 21.8275 206.005 22 205.172 22C204.195 22 203.277 21.7591 202.418 21.2773C201.559 20.7891 200.895 20.1348 200.426 19.3145C199.957 18.4941 199.723 17.5924 199.723 16.6094C199.723 15.6263 199.967 14.7116 200.455 13.8652C200.943 13.0124 201.617 12.3385 202.477 11.8438C203.342 11.349 204.254 11.1016 205.211 11.1016C206.005 11.1016 206.744 11.2676 207.428 11.5996C208.118 11.9251 208.782 12.4655 209.42 13.2207V11.375ZM205.387 12.4199C204.612 12.4199 203.893 12.6087 203.229 12.9863C202.564 13.3574 202.044 13.875 201.666 14.5391C201.288 15.1966 201.1 15.9095 201.1 16.6777C201.1 17.8431 201.49 18.8066 202.271 19.5684C203.053 20.3301 204.065 20.7109 205.309 20.7109C206.565 20.7109 207.574 20.3333 208.336 19.5781C209.104 18.8229 209.488 17.8301 209.488 16.5996C209.488 15.7988 209.312 15.0859 208.961 14.4609C208.609 13.8294 208.111 13.3314 207.467 12.9668C206.822 12.6022 206.129 12.4199 205.387 12.4199ZM214.205 7C214.518 7 214.785 7.11068 215.006 7.33203C215.227 7.55339 215.338 7.82031 215.338 8.13281C215.338 8.4388 215.227 8.70247 215.006 8.92383C214.785 9.14518 214.518 9.25586 214.205 9.25586C213.899 9.25586 213.635 9.14518 213.414 8.92383C213.193 8.70247 213.082 8.4388 213.082 8.13281C213.082 7.82031 213.193 7.55339 213.414 7.33203C213.635 7.11068 213.899 7 214.205 7ZM213.521 11.375H214.898V22H213.521V11.375ZM228.316 11.375V22H226.969V20.1738C226.396 20.8704 225.751 21.3945 225.035 21.7461C224.326 22.0977 223.548 22.2734 222.701 22.2734C221.197 22.2734 219.911 21.7298 218.844 20.6426C217.783 19.5488 217.252 18.2207 217.252 16.6582C217.252 15.1283 217.789 13.8197 218.863 12.7324C219.938 11.6452 221.23 11.1016 222.74 11.1016C223.613 11.1016 224.4 11.2871 225.104 11.6582C225.813 12.0293 226.435 12.5859 226.969 13.3281V11.375H228.316ZM222.848 12.4199C222.086 12.4199 221.383 12.6087 220.738 12.9863C220.094 13.3574 219.579 13.8815 219.195 14.5586C218.818 15.2357 218.629 15.9518 218.629 16.707C218.629 17.4557 218.821 18.1719 219.205 18.8555C219.589 19.5391 220.104 20.0729 220.748 20.457C221.399 20.8346 222.096 21.0234 222.838 21.0234C223.587 21.0234 224.296 20.8346 224.967 20.457C225.637 20.0794 226.152 19.5684 226.51 18.9238C226.874 18.2793 227.057 17.5534 227.057 16.7461C227.057 15.5156 226.65 14.487 225.836 13.6602C225.029 12.8333 224.033 12.4199 222.848 12.4199Z" fill="white"/>
<path d="M295.516 7.27344H295.809V17.2832H297.547V18.6602H295.809V22H294.373V18.6602H287.508L295.516 7.27344ZM294.373 17.2832V11.2969L290.145 17.2832H294.373ZM314.109 18.4746L315.262 19.0801C314.884 19.8223 314.448 20.4212 313.953 20.877C313.458 21.3327 312.902 21.681 312.283 21.9219C311.665 22.1562 310.965 22.2734 310.184 22.2734C308.452 22.2734 307.098 21.707 306.121 20.5742C305.145 19.4349 304.656 18.1491 304.656 16.7168C304.656 15.3691 305.07 14.168 305.896 13.1133C306.945 11.7721 308.348 11.1016 310.105 11.1016C311.915 11.1016 313.361 11.7884 314.441 13.1621C315.21 14.1322 315.6 15.3431 315.613 16.7949H306.062C306.089 18.0319 306.482 19.0475 307.244 19.8418C308.006 20.6296 308.947 21.0234 310.066 21.0234C310.607 21.0234 311.131 20.929 311.639 20.7402C312.153 20.5514 312.589 20.3008 312.947 19.9883C313.305 19.6758 313.693 19.1712 314.109 18.4746ZM314.109 15.6133C313.927 14.8841 313.66 14.3014 313.309 13.8652C312.964 13.429 312.505 13.0775 311.932 12.8105C311.359 12.5436 310.757 12.4102 310.125 12.4102C309.083 12.4102 308.188 12.7454 307.439 13.416C306.893 13.9043 306.479 14.6367 306.199 15.6133H314.109ZM318.172 11.375H319.539V13.2793C320.086 12.5501 320.691 12.0065 321.355 11.6484C322.02 11.2839 322.742 11.1016 323.523 11.1016C324.318 11.1016 325.021 11.3034 325.633 11.707C326.251 12.1107 326.707 12.6543 327 13.3379C327.293 14.0215 327.439 15.0859 327.439 16.5312V22H326.082V16.9316C326.082 15.7077 326.03 14.8906 325.926 14.4805C325.763 13.7773 325.457 13.25 325.008 12.8984C324.559 12.5404 323.973 12.3613 323.25 12.3613C322.423 12.3613 321.681 12.6348 321.023 13.1816C320.372 13.7285 319.943 14.4056 319.734 15.2129C319.604 15.7402 319.539 16.7038 319.539 18.1035V22H318.172V11.375ZM335.721 7.27344H337.088V22H335.721V7.27344ZM340.408 7C340.721 7 340.988 7.11068 341.209 7.33203C341.43 7.55339 341.541 7.82031 341.541 8.13281C341.541 8.4388 341.43 8.70247 341.209 8.92383C340.988 9.14518 340.721 9.25586 340.408 9.25586C340.102 9.25586 339.839 9.14518 339.617 8.92383C339.396 8.70247 339.285 8.4388 339.285 8.13281C339.285 7.82031 339.396 7.55339 339.617 7.33203C339.839 7.11068 340.102 7 340.408 7ZM339.725 11.375H341.102V22H339.725V11.375ZM343.934 11.375H345.301V13.2793C345.848 12.5501 346.453 12.0065 347.117 11.6484C347.781 11.2839 348.504 11.1016 349.285 11.1016C350.079 11.1016 350.783 11.3034 351.395 11.707C352.013 12.1107 352.469 12.6543 352.762 13.3379C353.055 14.0215 353.201 15.0859 353.201 16.5312V22H351.844V16.9316C351.844 15.7077 351.792 14.8906 351.688 14.4805C351.525 13.7773 351.219 13.25 350.77 12.8984C350.32 12.5404 349.734 12.3613 349.012 12.3613C348.185 12.3613 347.443 12.6348 346.785 13.1816C346.134 13.7285 345.704 14.4056 345.496 15.2129C345.366 15.7402 345.301 16.7038 345.301 18.1035V22H343.934V11.375ZM365.086 18.4746L366.238 19.0801C365.861 19.8223 365.424 20.4212 364.93 20.877C364.435 21.3327 363.878 21.681 363.26 21.9219C362.641 22.1562 361.941 22.2734 361.16 22.2734C359.428 22.2734 358.074 21.707 357.098 20.5742C356.121 19.4349 355.633 18.1491 355.633 16.7168C355.633 15.3691 356.046 14.168 356.873 13.1133C357.921 11.7721 359.324 11.1016 361.082 11.1016C362.892 11.1016 364.337 11.7884 365.418 13.1621C366.186 14.1322 366.577 15.3431 366.59 16.7949H357.039C357.065 18.0319 357.459 19.0475 358.221 19.8418C358.982 20.6296 359.923 21.0234 361.043 21.0234C361.583 21.0234 362.107 20.929 362.615 20.7402C363.13 20.5514 363.566 20.3008 363.924 19.9883C364.282 19.6758 364.669 19.1712 365.086 18.4746ZM365.086 15.6133C364.904 14.8841 364.637 14.3014 364.285 13.8652C363.94 13.429 363.481 13.0775 362.908 12.8105C362.335 12.5436 361.733 12.4102 361.102 12.4102C360.06 12.4102 359.165 12.7454 358.416 13.416C357.869 13.9043 357.456 14.6367 357.176 15.6133H365.086ZM379.734 11.375V22H378.387V20.1738C377.814 20.8704 377.169 21.3945 376.453 21.7461C375.743 22.0977 374.965 22.2734 374.119 22.2734C372.615 22.2734 371.329 21.7298 370.262 20.6426C369.201 19.5488 368.67 18.2207 368.67 16.6582C368.67 15.1283 369.207 13.8197 370.281 12.7324C371.355 11.6452 372.648 11.1016 374.158 11.1016C375.031 11.1016 375.818 11.2871 376.521 11.6582C377.231 12.0293 377.853 12.5859 378.387 13.3281V11.375H379.734ZM374.266 12.4199C373.504 12.4199 372.801 12.6087 372.156 12.9863C371.512 13.3574 370.997 13.8815 370.613 14.5586C370.236 15.2357 370.047 15.9518 370.047 16.707C370.047 17.4557 370.239 18.1719 370.623 18.8555C371.007 19.5391 371.521 20.0729 372.166 20.457C372.817 20.8346 373.514 21.0234 374.256 21.0234C375.005 21.0234 375.714 20.8346 376.385 20.457C377.055 20.0794 377.57 19.5684 377.928 18.9238C378.292 18.2793 378.475 17.5534 378.475 16.7461C378.475 15.5156 378.068 14.487 377.254 13.6602C376.447 12.8333 375.451 12.4199 374.266 12.4199Z" fill="white"/>
<path d="M108.309 9.31335C108.72 8.89555 109.381 8.89555 109.792 9.31335L116.755 16.3989C117.082 16.7314 117.082 17.2686 116.755 17.6011L109.792 24.6867C109.381 25.1045 108.72 25.1045 108.309 24.6867C107.898 24.2689 107.898 23.5953 108.309 23.1775L114.375 16.9957L108.301 10.814C107.898 10.4047 107.898 9.72262 108.309 9.31335Z" fill="white"/>
<path d="M251.309 9.31335C251.72 8.89555 252.381 8.89555 252.792 9.31335L259.755 16.3989C260.082 16.7314 260.082 17.2686 259.755 17.6011L252.792 24.6867C252.381 25.1045 251.72 25.1045 251.309 24.6867C250.898 24.2689 250.898 23.5953 251.309 23.1775L257.375 16.9957L251.301 10.814C250.898 10.4047 250.898 9.72262 251.309 9.31335Z" fill="white"/>
</svg>
