<svg width="57" height="52" viewBox="0 0 57 52" fill="none" xmlns="http://www.w3.org/2000/svg">
<path d="M44.46 21.5151C44.4593 21.3063 44.454 21.0987 44.4437 20.892V9.10843L40.8728 12.3661C37.9502 9.10254 33.5042 7.01807 28.5243 7.01807C23.3419 7.01807 18.7378 9.27476 15.8274 12.7696L21.6805 18.1655C22.2541 17.1977 23.069 16.3665 24.0515 15.7386C25.0734 15.0112 26.5213 14.4163 28.5241 14.4163C28.7661 14.4163 28.9529 14.4421 29.0901 14.4907C31.5716 14.6694 33.7227 15.9188 34.9892 17.7322L30.8461 21.5119C36.0939 21.4931 42.0222 21.4821 44.4596 21.5143" fill="#1C3AA9"/>
<path d="M28.4312 7.01855C28.2023 7.01925 27.9747 7.02407 27.7481 7.03343H14.8315L18.4024 10.2911C14.8251 12.9573 12.5402 17.0133 12.5402 21.5564C12.5402 26.2842 15.0139 30.4844 18.8447 33.1395L24.7594 27.7998C23.6986 27.2765 22.7874 26.5331 22.0992 25.6368C21.3019 24.7046 20.6498 23.3837 20.6498 21.5565C20.6498 21.3358 20.6781 21.1654 20.7314 21.0402C20.9272 18.7764 22.2967 16.814 24.2845 15.6586L28.4276 19.4383C28.407 14.6508 28.3949 9.24249 28.4303 7.01897" fill="#4285F4"/>
<path d="M12.5408 21.556C12.5415 21.7648 12.5468 21.9725 12.5571 22.1792V33.9627L16.128 30.7051C19.0506 33.9686 23.4966 36.0531 28.4765 36.0531C33.6589 36.0531 38.263 33.7964 41.1734 30.3016L35.3203 24.9057C34.7466 25.8735 33.9318 26.7047 32.9492 27.3325C31.9274 28.06 30.4795 28.6548 28.4766 28.6548C28.2347 28.6548 28.0479 28.629 27.9107 28.5804C25.4292 28.4018 23.2781 27.1524 22.0116 25.339L26.1547 21.5593C20.9069 21.5781 14.9785 21.5891 12.5412 21.5569" fill="#ABABAB"/>
<path d="M15.2296 41.6832C14.8415 41.6832 14.4935 41.7503 14.1856 41.8847C13.8777 42.0159 13.6167 42.2037 13.4026 42.4479C13.1917 42.6921 13.0294 42.9882 12.9157 43.3362C12.8052 43.6812 12.75 44.0673 12.75 44.4947V45.7265C12.75 46.1569 12.8052 46.5446 12.9157 46.8896C13.0294 47.2346 13.1901 47.5291 13.3975 47.7734C13.605 48.0176 13.856 48.2053 14.1504 48.3366C14.4449 48.4679 14.7762 48.5335 15.1443 48.5335C15.5224 48.5335 15.8537 48.4831 16.1381 48.3824C16.4259 48.2816 16.6668 48.1366 16.8609 47.9474C17.055 47.755 17.2039 47.5231 17.3077 47.2513C17.4147 46.9796 17.4783 46.6713 17.4984 46.3264H16.5698C16.5464 46.5919 16.5062 46.8194 16.4493 47.0086C16.3924 47.1949 16.3088 47.349 16.1984 47.4711C16.0913 47.5902 15.9507 47.6787 15.7767 47.7367C15.6061 47.7917 15.3952 47.8191 15.1443 47.8191C14.8766 47.8191 14.649 47.7657 14.4616 47.6589C14.2743 47.549 14.122 47.3994 14.0049 47.2101C13.8911 47.0208 13.8075 46.7995 13.7539 46.5461C13.7037 46.2928 13.6786 46.0195 13.6786 45.7265V44.4856C13.6786 44.1711 13.7087 43.8857 13.769 43.6292C13.8325 43.3728 13.9279 43.1546 14.0551 42.9744C14.1822 42.7943 14.3429 42.6554 14.537 42.5577C14.731 42.457 14.9619 42.4066 15.2296 42.4066C15.4538 42.4066 15.6462 42.4371 15.8068 42.4982C15.9675 42.5562 16.1013 42.6478 16.2084 42.773C16.3155 42.8951 16.3974 43.0508 16.4543 43.24C16.5112 43.4293 16.5497 43.6552 16.5698 43.9177H17.4984C17.4817 43.5575 17.4197 43.2385 17.3127 42.9607C17.2056 42.6829 17.0567 42.4493 16.8659 42.2601C16.6752 42.0708 16.4426 41.9273 16.1683 41.8296C15.8972 41.7319 15.5844 41.6832 15.2296 41.6832ZM37.8974 41.6832C37.5092 41.6832 37.1612 41.7503 36.8533 41.8847C36.5455 42.0159 36.2845 42.2037 36.0703 42.4479C35.8595 42.6921 35.6972 42.9882 35.5834 43.3362C35.473 43.6812 35.4178 44.0673 35.4178 44.4947V45.7265C35.4178 46.1569 35.473 46.5446 35.5834 46.8896C35.6972 47.2346 35.8578 47.5291 36.0653 47.7734C36.2728 48.0176 36.5237 48.2053 36.8182 48.3366C37.1127 48.4678 37.4439 48.5335 37.812 48.5335C38.1902 48.5335 38.5214 48.4831 38.8059 48.3824C39.0937 48.2816 39.3346 48.1366 39.5287 47.9474C39.7228 47.755 39.8717 47.5231 39.9754 47.2513C40.0825 46.9796 40.1461 46.6713 40.1662 46.3264H39.2376C39.2142 46.5919 39.174 46.8194 39.1171 47.0086C39.0602 47.1949 38.9766 47.349 38.8662 47.4711C38.7591 47.5902 38.6185 47.6787 38.4445 47.7367C38.2738 47.7917 38.063 47.8191 37.8121 47.8191C37.5444 47.8191 37.3168 47.7657 37.1294 47.6589C36.9421 47.549 36.7898 47.3994 36.6727 47.2101C36.5589 47.0208 36.4753 46.7995 36.4217 46.5461C36.3715 46.2928 36.3464 46.0195 36.3464 45.7265V44.4856C36.3464 44.1711 36.3766 43.8857 36.4368 43.6292C36.5004 43.3728 36.5957 43.1546 36.7229 42.9744C36.85 42.7943 37.0107 42.6554 37.2047 42.5577C37.3988 42.457 37.6297 42.4066 37.8974 42.4066C38.1216 42.4066 38.314 42.4371 38.4746 42.4982C38.6352 42.5562 38.7691 42.6478 38.8761 42.773C38.9832 42.8951 39.0652 43.0508 39.1221 43.24C39.179 43.4293 39.2175 43.6552 39.2375 43.9177H40.1661C40.1494 43.5575 40.0875 43.2385 39.9804 42.9607C39.8733 42.6829 39.7244 42.4493 39.5337 42.2601C39.3429 42.0708 39.1103 41.9273 38.836 41.8296C38.5649 41.7319 38.2521 41.6832 37.8974 41.6832ZM20.5204 41.7748L18.1663 48.4419H19.1099L19.6771 46.7018H22.1467L22.7239 48.4419H23.6675L21.3084 41.7748H20.5204ZM24.6612 41.7748V48.4419H25.5798V45.8318H26.9902C27.3416 45.8318 27.6528 45.7875 27.9238 45.699C28.1949 45.6074 28.4224 45.4761 28.6065 45.3052C28.7939 45.1342 28.9344 44.9236 29.0281 44.6733C29.1251 44.4199 29.1736 44.1329 29.1736 43.8124C29.1736 43.5163 29.1251 43.2446 29.0281 42.9973C28.9344 42.747 28.7955 42.5318 28.6115 42.3516C28.4274 42.1685 28.1982 42.0265 27.9238 41.9258C27.6528 41.8251 27.3416 41.7747 26.9902 41.7747L24.6612 41.7748ZM29.8764 41.7748V42.4983H31.7938V48.4419H32.7123V42.4983H34.6347V41.7748H29.8764ZM41.4059 41.7748V48.4419H42.3245V45.3601H45.2658V48.4419H46.1894V41.7748H45.2658V44.6413H42.3245V41.7748H41.4059ZM49.6728 41.7748L47.3187 48.4419H48.2624L48.8296 46.7018H51.2991L51.8763 48.4419H52.82L50.4609 41.7748H49.6728ZM25.5797 42.4983H26.9901C27.2143 42.4983 27.4051 42.5349 27.5623 42.6082C27.723 42.6814 27.8535 42.7791 27.9539 42.9012C28.0576 43.0233 28.1329 43.1653 28.1797 43.3271C28.2299 43.4858 28.255 43.6506 28.255 43.8216C28.255 44.0109 28.2299 44.1849 28.1797 44.3436C28.1329 44.4993 28.0576 44.6352 27.9539 44.7512C27.8535 44.8641 27.723 44.9526 27.5623 45.0168C27.4051 45.0809 27.2143 45.1129 26.9901 45.1129H25.5797V42.4983ZM20.9118 42.947L21.9106 45.9784H19.918L20.9118 42.947ZM50.0642 42.947L51.0631 45.9784H49.0704L50.0642 42.947ZM6.82783 43.3958C6.59694 43.3958 6.39782 43.4492 6.23051 43.556C6.06654 43.6629 5.92935 43.8079 5.81893 43.991L5.80387 43.4873H4.94055V48.4419H5.82899V44.8976C5.91265 44.6869 6.03144 44.5206 6.18537 44.3985C6.34264 44.2763 6.54175 44.2153 6.78269 44.2153C6.85965 44.2153 6.92825 44.2184 6.98848 44.2244C7.04872 44.2276 7.11397 44.2351 7.18424 44.2473L7.17922 43.4597C7.16583 43.4536 7.14408 43.4475 7.11397 43.4414C7.0872 43.4322 7.05708 43.4246 7.02362 43.4185C6.99015 43.4124 6.95502 43.4078 6.91821 43.4047C6.88474 43.3986 6.8546 43.3958 6.82783 43.3958ZM9.81437 43.3958C9.5567 43.3958 9.30741 43.437 9.06649 43.5194C8.82556 43.6018 8.6114 43.7377 8.42402 43.927C8.23998 44.1132 8.09107 44.3574 7.9773 44.6596C7.86352 44.9588 7.80664 45.3266 7.80664 45.7632V46.3218C7.80664 46.7004 7.85516 47.0285 7.9522 47.3063C8.04924 47.5841 8.18811 47.8146 8.36879 47.9978C8.55284 48.1779 8.77536 48.3122 9.03638 48.4008C9.29739 48.4893 9.59019 48.5336 9.91479 48.5336C10.149 48.5336 10.3582 48.5122 10.5422 48.4695C10.7296 48.4267 10.8952 48.3718 11.0391 48.3046C11.183 48.2344 11.3068 48.155 11.4106 48.0665C11.5143 47.978 11.603 47.8864 11.6766 47.7917L11.2148 47.2789C11.1412 47.3613 11.0626 47.4376 10.9789 47.5078C10.8952 47.575 10.8032 47.6345 10.7028 47.6864C10.6024 47.7353 10.492 47.7734 10.3716 47.8009C10.2511 47.8284 10.1156 47.8421 9.965 47.8421C9.55342 47.8421 9.23718 47.7215 9.01633 47.4804C8.79882 47.2392 8.69007 46.853 8.69007 46.3218V46.2074H11.7218V45.7357C11.7218 45.3572 11.6866 45.0229 11.6164 44.7329C11.5461 44.4429 11.434 44.1987 11.2801 44.0002C11.1261 43.8018 10.9287 43.6522 10.6878 43.5515C10.4468 43.4477 10.1557 43.3958 9.81437 43.3958ZM9.81437 44.0918C10.0084 44.0918 10.1691 44.1239 10.2962 44.188C10.4234 44.2521 10.5238 44.3421 10.5974 44.4581C10.6744 44.5741 10.7296 44.7131 10.763 44.8748C10.7999 45.0336 10.8233 45.2091 10.8333 45.4014V45.5113H8.69506C8.70845 45.2335 8.74525 45.003 8.80549 44.8199C8.86572 44.6367 8.94436 44.4917 9.0414 44.3849C9.14179 44.275 9.25723 44.1986 9.38774 44.1559C9.51824 44.1132 9.66042 44.0918 9.81437 44.0918Z" fill="#A6A6A6"/>
</svg>
