<svg width="39" height="39" viewBox="0 0 39 39" fill="none" xmlns="http://www.w3.org/2000/svg">
<g clip-path="url(#clip0_457_6767)">
<path d="M35.9693 14.742L5.46485 0.39327C4.04623 -0.29898 2.43585 -0.0731051 1.2626 0.98477C0.087726 2.04427 -0.305524 3.62377 0.285976 5.21139L7.90398 19.5033L0.378601 33.8975C-0.162524 35.3828 0.232351 36.9623 1.41048 38.0185C2.1336 38.6685 3.0241 39.0016 3.92923 39.0016C4.49635 39.0016 5.06673 38.8716 5.60948 38.6051L35.9742 24.2694C37.8414 23.3935 39.0016 21.5654 39 19.5C39 17.4363 37.8348 15.613 35.9693 14.742ZM1.76635 4.55002C1.39423 3.53602 1.82323 2.66827 2.34973 2.19377C2.69748 1.88177 3.20935 1.62664 3.79923 1.62664C4.1031 1.62664 4.42648 1.69489 4.75798 1.85739C4.76123 1.85739 4.7661 1.86064 4.76935 1.86227L35.2787 16.2143C36.335 16.7083 37.0483 17.602 37.2872 18.6875H9.3096L1.76635 4.55002ZM35.2804 22.8004L4.90423 37.1426C3.9341 37.6155 3.02573 37.2824 2.4976 36.8095C1.96948 36.3366 1.53723 35.4689 1.86385 34.5508L9.31448 20.3109H37.2905C37.0565 21.4013 36.3415 22.3015 35.2804 22.7988V22.8004Z" fill="#FA1B5E"/>
</g>
<defs>
<clipPath id="clip0_457_6767">
<rect width="39" height="39" fill="white"/>
</clipPath>
</defs>
</svg>
