<svg width="49" height="49" viewBox="0 0 49 49" fill="none" xmlns="http://www.w3.org/2000/svg">
<path d="M9.45985 40.0416C7.45776 40.0416 5.74765 39.3242 4.32951 37.8894C2.91136 36.4546 2.16892 34.7194 2.10219 32.684C2.10219 32.3837 2.11887 32.0834 2.15224 31.783C2.18561 31.4827 2.23566 31.1824 2.3024 30.8821L6.50677 14.0646C6.97392 12.2627 7.92491 10.8029 9.35974 9.68505C10.7946 8.56722 12.4296 8.0083 14.2648 8.0083H33.7852C35.6204 8.0083 37.2554 8.56722 38.6903 9.68505C40.1251 10.8029 41.0761 12.2627 41.5432 14.0646L45.7476 30.8821C45.8143 31.1824 45.8727 31.4911 45.9228 31.8081C45.9728 32.1251 45.9979 32.4337 45.9979 32.734C45.9979 34.7695 45.2721 36.4963 43.8206 37.9144C42.3691 39.3326 40.6256 40.0416 38.5902 40.0416C37.1887 40.0416 35.8873 39.6746 34.6861 38.9405C33.4848 38.2064 32.5839 37.2054 31.9833 35.9374L30.5818 33.0343C30.415 32.7007 30.1647 32.4504 29.831 32.2836C29.4974 32.1167 29.147 32.0333 28.78 32.0333H19.2701C18.903 32.0333 18.5526 32.1167 18.219 32.2836C17.8853 32.4504 17.635 32.7007 17.4682 33.0343L16.0667 35.9374C15.4661 37.2054 14.5652 38.2064 13.3639 38.9405C12.1627 39.6746 10.8613 40.0416 9.45985 40.0416ZM9.61 36.0375C10.244 36.0375 10.8196 35.8706 11.3368 35.5369C11.854 35.2033 12.2461 34.7528 12.513 34.1855L13.9145 31.3326C14.415 30.2982 15.1491 29.489 16.1168 28.905C17.0844 28.3211 18.1355 28.0291 19.2701 28.0291H28.78C29.9145 28.0291 30.9656 28.3294 31.9332 28.9301C32.9009 29.5307 33.6517 30.3315 34.1856 31.3326L35.587 34.1855C35.854 34.7528 36.2461 35.2033 36.7633 35.5369C37.2805 35.8706 37.8561 36.0375 38.4901 36.0375C39.4244 36.0375 40.2252 35.7288 40.8926 35.1115C41.5599 34.4942 41.9103 33.7184 41.9436 32.7841C41.9436 32.8175 41.9103 32.5005 41.8435 31.8331L37.6392 15.0656C37.4056 14.1647 36.9384 13.4306 36.2377 12.8634C35.537 12.2961 34.7195 12.0125 33.7852 12.0125H14.2648C13.3305 12.0125 12.5047 12.2961 11.7873 12.8634C11.0699 13.4306 10.611 14.1647 10.4108 15.0656L6.20646 31.8331C6.13972 32.0333 6.10636 32.3336 6.10636 32.734C6.10636 33.6683 6.44838 34.4525 7.13242 35.0865C7.81647 35.7205 8.64233 36.0375 9.61 36.0375ZM27.0281 22.0229C27.5954 22.0229 28.0709 21.831 28.4546 21.4473C28.8383 21.0636 29.0302 20.5881 29.0302 20.0208C29.0302 19.4535 28.8383 18.978 28.4546 18.5943C28.0709 18.2106 27.5954 18.0187 27.0281 18.0187C26.4609 18.0187 25.9854 18.2106 25.6016 18.5943C25.2179 18.978 25.026 19.4535 25.026 20.0208C25.026 20.5881 25.2179 21.0636 25.6016 21.4473C25.9854 21.831 26.4609 22.0229 27.0281 22.0229ZM31.0323 18.0187C31.5996 18.0187 32.075 17.8269 32.4588 17.4431C32.8425 17.0594 33.0344 16.5839 33.0344 16.0166C33.0344 15.4494 32.8425 14.9739 32.4588 14.5901C32.075 14.2064 31.5996 14.0146 31.0323 14.0146C30.465 14.0146 29.9895 14.2064 29.6058 14.5901C29.2221 14.9739 29.0302 15.4494 29.0302 16.0166C29.0302 16.5839 29.2221 17.0594 29.6058 17.4431C29.9895 17.8269 30.465 18.0187 31.0323 18.0187ZM31.0323 26.0271C31.5996 26.0271 32.075 25.8352 32.4588 25.4515C32.8425 25.0677 33.0344 24.5922 33.0344 24.025C33.0344 23.4577 32.8425 22.9822 32.4588 22.5985C32.075 22.2148 31.5996 22.0229 31.0323 22.0229C30.465 22.0229 29.9895 22.2148 29.6058 22.5985C29.2221 22.9822 29.0302 23.4577 29.0302 24.025C29.0302 24.5922 29.2221 25.0677 29.6058 25.4515C29.9895 25.8352 30.465 26.0271 31.0323 26.0271ZM35.0365 22.0229C35.6037 22.0229 36.0792 21.831 36.4629 21.4473C36.8467 21.0636 37.0385 20.5881 37.0385 20.0208C37.0385 19.4535 36.8467 18.978 36.4629 18.5943C36.0792 18.2106 35.6037 18.0187 35.0365 18.0187C34.4692 18.0187 33.9937 18.2106 33.61 18.5943C33.2262 18.978 33.0344 19.4535 33.0344 20.0208C33.0344 20.5881 33.2262 21.0636 33.61 21.4473C33.9937 21.831 34.4692 22.0229 35.0365 22.0229ZM17.0177 25.026C17.4515 25.026 17.8102 24.8842 18.0938 24.6006C18.3775 24.3169 18.5193 23.9582 18.5193 23.5244V21.5224H20.5214C20.9551 21.5224 21.3138 21.3805 21.5975 21.0969C21.8811 20.8133 22.0229 20.4546 22.0229 20.0208C22.0229 19.587 21.8811 19.2283 21.5975 18.9447C21.3138 18.6611 20.9551 18.5192 20.5214 18.5192H18.5193V16.5172C18.5193 16.0834 18.3775 15.7247 18.0938 15.441C17.8102 15.1574 17.4515 15.0156 17.0177 15.0156C16.5839 15.0156 16.2252 15.1574 15.9416 15.441C15.658 15.7247 15.5161 16.0834 15.5161 16.5172V18.5192H13.5141C13.0803 18.5192 12.7216 18.6611 12.4379 18.9447C12.1543 19.2283 12.0125 19.587 12.0125 20.0208C12.0125 20.4546 12.1543 20.8133 12.4379 21.0969C12.7216 21.3805 13.0803 21.5224 13.5141 21.5224H15.5161V23.5244C15.5161 23.9582 15.658 24.3169 15.9416 24.6006C16.2252 24.8842 16.5839 25.026 17.0177 25.026Z" fill="#FA1B5E"/>
</svg>
