<svg width="55" height="55" viewBox="0 0 55 55" fill="none" xmlns="http://www.w3.org/2000/svg">
<path d="M46.8096 23.139C43.9885 19.8275 38.9835 14.8386 31.1529 9.89545C24.7133 5.83003 18.9819 3.67128 15.306 2.57587C13.2435 1.9617 11.0573 2.34441 9.3202 3.6392C7.58312 4.93628 6.58624 6.92087 6.58624 9.08649V45.9136C6.58624 48.0792 7.58541 50.0638 9.3202 51.3609C10.5142 52.25 11.9212 52.7107 13.3558 52.7107C14.0067 52.7107 14.6621 52.6144 15.3083 52.4242C18.9842 51.3288 24.7156 49.17 31.1552 45.1046C38.9858 40.1592 43.9908 35.1725 46.8119 31.8588C48.9615 29.3334 48.9592 25.6644 46.8096 23.139Z" fill="white"/>
</svg>