<svg width="97" height="20" viewBox="0 0 97 20" fill="none" xmlns="http://www.w3.org/2000/svg">
<path d="M5.21751 0.634766H7.96165V10.166C7.96165 11.6829 7.84121 12.7474 7.60033 13.3594C7.35944 13.9714 6.96231 14.4596 6.40892 14.8242C5.85553 15.1823 5.19147 15.3613 4.41673 15.3613C2.8347 15.3613 1.48705 14.668 0.373764 13.2812L2.34642 11.4355C2.78262 11.9303 3.15371 12.2624 3.4597 12.4316C3.76569 12.6009 4.06192 12.6855 4.34837 12.6855C4.64134 12.6855 4.85944 12.5618 5.00267 12.3145C5.1459 12.0671 5.21751 11.5234 5.21751 10.6836V0.634766ZM10.9499 4.375H13.6452V9.49219C13.6452 10.4883 13.7136 11.1816 13.8503 11.5723C13.987 11.9564 14.2051 12.2559 14.5046 12.4707C14.8106 12.6855 15.185 12.793 15.6277 12.793C16.0704 12.793 16.4447 12.6888 16.7507 12.4805C17.0632 12.2656 17.2943 11.9531 17.4441 11.543C17.5548 11.237 17.6101 10.5827 17.6101 9.58008V4.375H20.2859V8.87695C20.2859 10.7324 20.1394 12.002 19.8464 12.6855C19.4883 13.5189 18.961 14.1602 18.2644 14.6094C17.5678 15.0521 16.6824 15.2734 15.6081 15.2734C14.4428 15.2734 13.4988 15.013 12.7761 14.4922C12.06 13.9714 11.5554 13.2454 11.2624 12.3145C11.0541 11.6699 10.9499 10.498 10.9499 8.79883V4.375ZM30.823 4.375H33.4792V13.4766C33.4792 15.2734 33.1179 16.5951 32.3952 17.4414C31.4252 18.5872 29.9636 19.1602 28.0105 19.1602C26.9688 19.1602 26.0932 19.0299 25.3835 18.7695C24.6739 18.5091 24.0749 18.125 23.5867 17.6172C23.0984 17.1159 22.737 16.5039 22.5027 15.7812H25.4421C25.7025 16.0807 26.0378 16.3053 26.448 16.4551C26.8581 16.6113 27.3432 16.6895 27.9031 16.6895C28.6192 16.6895 29.1954 16.5788 29.6316 16.3574C30.0678 16.1361 30.3738 15.8496 30.5495 15.498C30.7318 15.1465 30.823 14.541 30.823 13.6816C30.3542 14.1504 29.8627 14.4889 29.3484 14.6973C28.8341 14.8991 28.2514 15 27.6003 15C26.1745 15 24.9701 14.4857 23.987 13.457C23.004 12.4284 22.5124 11.1263 22.5124 9.55078C22.5124 7.86458 23.0333 6.51042 24.0749 5.48828C25.0189 4.5638 26.1452 4.10156 27.4538 4.10156C28.0658 4.10156 28.642 4.21549 29.1824 4.44336C29.7292 4.66471 30.2761 5.03255 30.823 5.54688V4.375ZM28.0593 6.5918C27.2195 6.5918 26.5261 6.875 25.9792 7.44141C25.4324 8.0013 25.1589 8.70768 25.1589 9.56055C25.1589 10.446 25.4389 11.1719 25.9988 11.7383C26.5587 12.3047 27.2618 12.5879 28.1081 12.5879C28.935 12.5879 29.6153 12.3112 30.1492 11.7578C30.6895 11.2044 30.9597 10.4785 30.9597 9.58008C30.9597 8.69466 30.6895 7.97526 30.1492 7.42188C29.6088 6.86849 28.9122 6.5918 28.0593 6.5918ZM44.0261 4.375H46.6824V15H44.0261V13.877C43.5053 14.3717 42.9812 14.7298 42.4538 14.9512C41.933 15.166 41.3666 15.2734 40.7546 15.2734C39.3809 15.2734 38.1928 14.7428 37.1902 13.6816C36.1876 12.6139 35.6863 11.2891 35.6863 9.70703C35.6863 8.06641 36.1713 6.72201 37.1413 5.67383C38.1114 4.62565 39.2898 4.10156 40.6765 4.10156C41.3145 4.10156 41.9135 4.22201 42.4734 4.46289C43.0333 4.70378 43.5508 5.0651 44.0261 5.54688V4.375ZM41.2234 6.5625C40.3966 6.5625 39.7097 6.85547 39.1628 7.44141C38.616 8.02083 38.3425 8.76628 38.3425 9.67773C38.3425 10.5957 38.6192 11.3509 39.1726 11.9434C39.7325 12.5358 40.4193 12.832 41.2331 12.832C42.073 12.832 42.7696 12.5423 43.323 11.9629C43.8764 11.377 44.1531 10.612 44.1531 9.66797C44.1531 8.74349 43.8764 7.99479 43.323 7.42188C42.7696 6.84896 42.0697 6.5625 41.2234 6.5625ZM57.2292 0.273438H59.8855V15H57.2292V13.877C56.7084 14.3717 56.1843 14.7298 55.657 14.9512C55.1361 15.166 54.5697 15.2734 53.9577 15.2734C52.5841 15.2734 51.3959 14.7428 50.3933 13.6816C49.3907 12.6139 48.8894 11.2891 48.8894 9.70703C48.8894 8.06641 49.3744 6.72201 50.3445 5.67383C51.3145 4.62565 52.4929 4.10156 53.8796 4.10156C54.5176 4.10156 55.1166 4.22201 55.6765 4.46289C56.2364 4.70378 56.754 5.0651 57.2292 5.54688V0.273438ZM54.4265 6.5625C53.5997 6.5625 52.9128 6.85547 52.366 7.44141C51.8191 8.02083 51.5456 8.76628 51.5456 9.67773C51.5456 10.5957 51.8223 11.3509 52.3757 11.9434C52.9356 12.5358 53.6225 12.832 54.4363 12.832C55.2761 12.832 55.9727 12.5423 56.5261 11.9629C57.0795 11.377 57.3562 10.612 57.3562 9.66797C57.3562 8.74349 57.0795 7.99479 56.5261 7.42188C55.9727 6.84896 55.2729 6.5625 54.4265 6.5625ZM67.571 4.10156C68.5736 4.10156 69.5144 4.35221 70.3933 4.85352C71.2787 5.35482 71.9688 6.03516 72.4636 6.89453C72.9584 7.75391 73.2058 8.68164 73.2058 9.67773C73.2058 10.6803 72.9551 11.6178 72.4538 12.4902C71.9591 13.3626 71.282 14.0462 70.4226 14.541C69.5632 15.0293 68.616 15.2734 67.5808 15.2734C66.0574 15.2734 64.7553 14.7331 63.6745 13.6523C62.6003 12.5651 62.0632 11.2467 62.0632 9.69727C62.0632 8.03711 62.6719 6.65365 63.8894 5.54688C64.9571 4.58333 66.1843 4.10156 67.571 4.10156ZM67.6101 6.61133C66.7833 6.61133 66.0932 6.90104 65.5398 7.48047C64.9929 8.05339 64.7195 8.78906 64.7195 9.6875C64.7195 10.612 64.9896 11.3607 65.53 11.9336C66.0769 12.5065 66.767 12.793 67.6003 12.793C68.4337 12.793 69.127 12.5033 69.6804 11.9238C70.2338 11.3444 70.5105 10.599 70.5105 9.6875C70.5105 8.77604 70.237 8.03711 69.6902 7.4707C69.1498 6.89779 68.4564 6.61133 67.6101 6.61133ZM74.7683 4.375H77.0535V5.71289C77.3008 5.18555 77.6296 4.78516 78.0398 4.51172C78.4499 4.23828 78.8992 4.10156 79.3874 4.10156C79.7325 4.10156 80.0938 4.19271 80.4714 4.375L79.6413 6.66992C79.3288 6.51367 79.0717 6.43555 78.8699 6.43555C78.4597 6.43555 78.1114 6.68945 77.8249 7.19727C77.545 7.70508 77.405 8.70117 77.405 10.1855L77.4148 10.7031V15H74.7683V4.375ZM89.5437 5.26367H86.8777C86.9493 3.71419 87.4343 2.49674 88.3327 1.61133C89.2377 0.719401 90.3966 0.273438 91.8093 0.273438C92.6817 0.273438 93.4499 0.458984 94.114 0.830078C94.7846 1.19466 95.3184 1.72526 95.7156 2.42188C96.1192 3.11198 96.321 3.8151 96.321 4.53125C96.321 5.38411 96.0769 6.30208 95.5886 7.28516C95.1068 8.26823 94.2214 9.43034 92.9324 10.7715L91.321 12.4707H96.4382V15H86.487V13.6914L90.9304 9.16016C92.0046 8.07292 92.7175 7.20052 93.0691 6.54297C93.4271 5.87891 93.6062 5.27995 93.6062 4.74609C93.6062 4.19271 93.4206 3.73698 93.0495 3.37891C92.685 3.01432 92.213 2.83203 91.6335 2.83203C91.0476 2.83203 90.5593 3.05013 90.1687 3.48633C89.7781 3.92253 89.5697 4.51497 89.5437 5.26367Z" fill="white"/>
</svg>
