<svg width="34" height="35" viewBox="0 0 34 35" fill="none" xmlns="http://www.w3.org/2000/svg">
<path d="M17 32.8013C25.4507 32.8013 32.3013 25.9507 32.3013 17.5C32.3013 9.04936 25.4507 2.19873 17 2.19873C8.54936 2.19873 1.69873 9.04936 1.69873 17.5C1.69873 25.9507 8.54936 32.8013 17 32.8013Z" stroke="white" stroke-width="2" stroke-linecap="round" stroke-linejoin="round"/>
<path d="M13.8649 12.1067C13.7434 12.0191 13.5985 11.9695 13.4487 11.9643C13.2989 11.9591 13.151 11.9985 13.0237 12.0775C12.8963 12.1563 12.7952 12.2713 12.7333 12.4077C12.6712 12.5441 12.6512 12.6959 12.6754 12.8437V22.1575C12.6514 22.3053 12.6718 22.4569 12.7339 22.593C12.7961 22.7293 12.8971 22.844 13.0244 22.9227C13.1518 23.0015 13.2996 23.0407 13.4491 23.0355C13.5987 23.0303 13.7434 22.9807 13.8649 22.8933L23.4608 18.0954C24.1142 17.7681 24.1142 17.2332 23.4608 16.9059L13.8649 12.1067Z" stroke="white" stroke-width="2" stroke-linecap="round" stroke-linejoin="round"/>
</svg>
