<svg width="49" height="49" viewBox="0 0 49 49" fill="none" xmlns="http://www.w3.org/2000/svg">
<g clip-path="url(#clip0_533_2230)">
<mask id="mask0_533_2230" style="mask-type:luminance" maskUnits="userSpaceOnUse" x="0" y="0" width="48" height="48">
<path d="M47.8679 24.0045C47.8679 10.8246 37.1835 0.140137 24.0035 0.140137C10.8236 0.140137 0.13913 10.8246 0.13913 24.0045C0.13913 37.1845 10.8236 47.8689 24.0035 47.8689C37.1835 47.8689 47.8679 37.1845 47.8679 24.0045Z" fill="white"/>
</mask>
<g mask="url(#mask0_533_2230)">
<path d="M47.8679 24.0045C47.8679 10.8246 37.1835 0.140137 24.0035 0.140137C10.8236 0.140137 0.13913 10.8246 0.13913 24.0045C0.13913 37.1845 10.8236 47.8689 24.0035 47.8689C37.1835 47.8689 47.8679 37.1845 47.8679 24.0045Z" fill="#FFB800"/>
<path d="M24.0291 11.2583C19.1828 11.2583 15.2522 15.9038 15.2522 21.6363C15.2522 23.8479 12.3338 25.9016 13.3325 27.5857H35.237C36.2357 25.9016 32.8033 23.8506 32.8033 21.6363C32.8033 15.9038 28.8754 11.2583 24.0291 11.2583Z" fill="black"/>
<path d="M36.0084 28.8307L13.4345 29.262C9.70472 29.262 7.37797 31.0451 2.27465 37.4872C2.27465 37.4872 -7.85431 51.105 -9.01369 52.3606C-13.2655 58.1573 -7.59727 63.3787 -2.48059 62.977C-0.0360308 62.7869 12.8534 58.7572 12.8534 58.7572V61.7827C12.8534 61.7827 16.4841 58.8589 19.0625 59.2928C20.9475 59.6087 22.7173 61.4375 22.7173 61.4375C24.6129 58.8805 30.5572 56.3127 29.9921 61.4375C29.9921 61.4375 31.6174 59.7185 37.117 59.7185C42.6192 59.7185 43.2001 61.4375 43.2001 61.4375L43.2484 58.2109C43.2484 58.2109 45.6367 59.349 46.4132 59.515C52.8151 61.7827 56.1779 55.1775 53.9342 50.963C53.2488 48.8585 44.9887 34.2205 45.0531 34.3678C42.8361 29.693 38.0996 28.7291 36.0084 28.8307Z" fill="#FF85D2"/>
<path d="M28.8005 41.1177C28.7522 40.518 28.8086 39.3451 29.4244 39.4549C30.1927 39.5916 31.1861 41.1177 32.0402 40.5473C32.4659 40.2047 32.0027 38.7695 32.3321 38.3599" stroke="black" stroke-width="0.5" stroke-linecap="round"/>
<path d="M13.1401 36.3653C13.0919 35.7653 13.1481 34.5927 13.764 34.7025C14.5324 34.8389 15.5258 36.3653 16.3799 35.7949C16.8056 35.4521 16.3424 34.017 16.6717 33.6074" stroke="black" stroke-width="0.5" stroke-linecap="round"/>
<path d="M1.95055 48.8423C1.90235 48.2426 1.95858 47.07 2.5744 47.1795C3.34284 47.3162 4.33621 48.8423 5.19032 48.2719C5.61604 47.9294 5.15284 46.4941 5.48217 46.0845" stroke="black" stroke-width="0.5" stroke-linecap="round"/>
<path d="M42.1882 43.8784C42.1401 43.2785 42.1963 42.1059 42.8121 42.2157C43.5804 42.3521 44.5738 43.8784 45.4279 43.3081C45.8537 42.9652 45.3904 41.5302 45.7198 41.1206" stroke="black" stroke-width="0.5" stroke-linecap="round"/>
<path d="M35.6521 32.8687C35.6041 32.2688 35.6603 31.0961 36.2761 31.2059C37.0444 31.3424 38.0378 32.8687 38.8919 32.2983C39.3176 31.9555 38.8544 30.5205 39.1838 30.1108" stroke="black" stroke-width="0.5" stroke-linecap="round"/>
<path d="M18.7013 20.1127L17.9945 18.8676C18.8647 18.5945 22.3186 15.7135 22.4605 14.3828C22.8889 15.7698 26.7687 19.2719 28.1475 19.7672L28.4502 21.1542C29.7112 20.1127 31.4355 20.2974 31.8531 21.5478C32.4181 23.7674 30.6163 24.4208 28.659 24.3376V26.3673V29.8641C28.659 29.8641 27.9413 30.761 27.1329 31.1653C24.4152 32.6729 21.8527 30.8388 21.1914 29.8641V26.6349C20.3882 26.6349 18.704 26.7368 17.9971 25.3231C17.2689 23.8745 18.0159 21.3443 18.7013 20.1127Z" fill="#6983FF"/>
<path d="M21.1749 28.0383L23.6864 26.3809C23.6864 26.3809 22.9073 26.5147 22.4093 26.563C21.9246 26.6113 21.1723 26.6353 21.1723 26.6353V28.0383H21.1749Z" fill="black"/>
<path d="M21.3333 18.9399C21.087 20.2091 22.0589 20.9534 22.0589 20.9534L20.8995 23.0017H22.2677" stroke="black" stroke-width="0.5" stroke-linecap="round"/>
<path d="M23.7377 18.9238C24.1394 18.8542 24.5464 18.8622 24.8275 18.9425" stroke="black" stroke-width="0.5" stroke-linecap="round"/>
<path d="M19.4241 18.683C19.8258 18.6134 20.2327 18.6215 20.5139 18.7018" stroke="black" stroke-width="0.5" stroke-linecap="round"/>
<path d="M23.1107 24.2549C23.4722 24.0646 23.7881 23.8076 23.9621 23.5747" stroke="black" stroke-width="0.5" stroke-linecap="round"/>
<path d="M29.3336 22.4557L30.79 21.2695" stroke="black" stroke-width="0.5" stroke-linecap="round"/>
<path d="M30.3993 21.6978L31.1732 22.4555" stroke="black" stroke-width="0.5" stroke-linecap="round"/>
<path d="M24.34 20.7983C24.4745 20.7983 24.5836 20.6893 24.5836 20.5547C24.5836 20.4201 24.4745 20.311 24.34 20.311C24.2054 20.311 24.0964 20.4201 24.0964 20.5547C24.0964 20.6893 24.2054 20.7983 24.34 20.7983Z" fill="black"/>
<path d="M20.0264 20.5576C20.1609 20.5576 20.27 20.4485 20.27 20.3139C20.27 20.1794 20.1609 20.0703 20.0264 20.0703C19.8918 20.0703 19.7827 20.1794 19.7827 20.3139C19.7827 20.4485 19.8918 20.5576 20.0264 20.5576Z" fill="black"/>
<path d="M32.909 13.1053C34.0797 11.6314 33.9759 9.59989 32.6766 8.56792C31.3776 7.53593 29.3754 7.89421 28.2044 9.36815C27.0337 10.8421 27.1374 12.8736 28.4367 13.9056C29.7357 14.9375 31.738 14.5793 32.909 13.1053Z" fill="black"/>
<path d="M18.752 22.5465C20.0444 22.5465 21.0921 21.4988 21.0921 20.2063C21.0921 18.9139 20.0444 17.8662 18.752 17.8662C17.4596 17.8662 16.4119 18.9139 16.4119 20.2063C16.4119 21.4988 17.4596 22.5465 18.752 22.5465Z" stroke="black" stroke-width="0.5"/>
<path d="M24.6852 22.5465C25.9775 22.5465 27.0253 21.4988 27.0253 20.2063C27.0253 18.9139 25.9775 17.8662 24.6852 17.8662C23.3927 17.8662 22.345 18.9139 22.345 20.2063C22.345 21.4988 23.3927 22.5465 24.6852 22.5465Z" stroke="black" stroke-width="0.5"/>
<path d="M20.8566 21.3418H22.6238" stroke="black" stroke-width="0.5"/>
<path d="M27.0416 20.5332H28.6373" stroke="black" stroke-width="0.5"/>
</g>
</g>
<defs>
<clipPath id="clip0_533_2230">
<rect width="48.2915" height="48.05" fill="white" transform="translate(0 0.149414)"/>
</clipPath>
</defs>
</svg>
