<?xml version="1.0" encoding="UTF-8"?>
<svg id="Capa_2" data-name="Capa 2" xmlns="http://www.w3.org/2000/svg" viewBox="0 0 38.91 38.91">
  <defs>
    <style>
      .cls-1 {
        fill: #262626;
      }

      .cls-1, .cls-2 {
        stroke-width: 0px;
      }

      .cls-2 {
        fill: #fff;
      }
    </style>
  </defs>
  <g id="Capa_1-2" data-name="Capa 1">
    <g>
      <rect class="cls-2" width="38.91" height="38.91"/>
      <path class="cls-1" d="M29.16,13.33c-.62.28-1.31.45-1.98.56.32-.05.79-.63.97-.86.29-.36.52-.76.66-1.2.02-.03.03-.08,0-.1-.04-.02-.07,0-.1,0-.75.4-1.52.69-2.35.9-.07.02-.12,0-.16-.04-.07-.08-.13-.15-.21-.21-.35-.29-.72-.53-1.14-.7-.55-.22-1.15-.32-1.74-.28-.58.04-1.14.2-1.65.47-.51.27-.97.64-1.33,1.09-.38.47-.65,1.01-.8,1.6-.14.56-.13,1.12-.04,1.69.01.09,0,.11-.08.09-3.22-.48-5.9-1.63-8.07-4.11-.09-.11-.15-.11-.22,0-.95,1.42-.49,3.71.7,4.83.16.15.32.3.5.44-.06.01-.85-.07-1.56-.44-.09-.06-.14-.03-.15.08,0,.15,0,.3.03.46.18,1.44,1.18,2.78,2.55,3.3.16.07.34.13.52.16-.31.07-.63.12-1.53.05-.11-.02-.15.03-.11.14.67,1.83,2.12,2.38,3.21,2.69.15.03.29.03.44.06,0,.01-.02.01-.03.03-.36.55-1.61.96-2.19,1.16-1.06.37-2.21.54-3.33.43-.18-.03-.22-.02-.26,0-.05.03,0,.07.05.12.23.15.46.28.69.41.71.38,1.45.68,2.22.89,4,1.1,8.5.29,11.5-2.69,2.36-2.34,3.18-5.57,3.18-8.8,0-.13.15-.2.24-.26.61-.46,1.11-1.01,1.57-1.63.1-.14.1-.26.1-.31v-.02c0-.05,0-.04-.08,0Z"/>
    </g>
  </g>
</svg>