<svg width="164" height="111" viewBox="0 0 164 111" fill="none" xmlns="http://www.w3.org/2000/svg">
<g filter="url(#filter0_di_7_75)">
<path d="M60.3158 74.0981C60.3158 89.6879 47.7091 102.326 32.1579 102.326C16.6067 102.326 4 89.6879 4 74.0981C4 58.5083 16.6067 45.8702 32.1579 45.8702C47.7091 45.8702 60.3158 58.5083 60.3158 74.0981Z" fill="url(#paint0_radial_7_75)"/>
<path d="M131.351 48.9176C131.351 75.934 109.504 97.8351 82.5542 97.8351C55.6047 97.8351 33.7578 75.934 33.7578 48.9176C33.7578 21.9011 55.6047 0 82.5542 0C109.504 0 131.351 21.9011 131.351 48.9176Z" fill="url(#paint1_radial_7_75)"/>
<path d="M159.508 74.0981C159.508 89.6879 146.902 102.326 131.351 102.326C115.799 102.326 103.193 89.6879 103.193 74.0981C103.193 58.5083 115.799 45.8702 131.351 45.8702C146.902 45.8702 159.508 58.5083 159.508 74.0981Z" fill="url(#paint2_radial_7_75)"/>
<path d="M32.1579 69.2865H131.351V102.326H32.1579V69.2865Z" fill="url(#paint3_radial_7_75)"/>
</g>
<defs>
<filter id="filter0_di_7_75" x="0" y="0" width="163.508" height="110.326" filterUnits="userSpaceOnUse" color-interpolation-filters="sRGB">
<feFlood flood-opacity="0" result="BackgroundImageFix"/>
<feColorMatrix in="SourceAlpha" type="matrix" values="0 0 0 0 0 0 0 0 0 0 0 0 0 0 0 0 0 0 127 0" result="hardAlpha"/>
<feOffset dy="4"/>
<feGaussianBlur stdDeviation="2"/>
<feComposite in2="hardAlpha" operator="out"/>
<feColorMatrix type="matrix" values="0 0 0 0 0 0 0 0 0 0 0 0 0 0 0 0 0 0 0.25 0"/>
<feBlend mode="normal" in2="BackgroundImageFix" result="effect1_dropShadow_7_75"/>
<feBlend mode="normal" in="SourceGraphic" in2="effect1_dropShadow_7_75" result="shape"/>
<feColorMatrix in="SourceAlpha" type="matrix" values="0 0 0 0 0 0 0 0 0 0 0 0 0 0 0 0 0 0 127 0" result="hardAlpha"/>
<feOffset dx="-6.73197" dy="6.73197"/>
<feGaussianBlur stdDeviation="1.68299"/>
<feComposite in2="hardAlpha" operator="arithmetic" k2="-1" k3="1"/>
<feColorMatrix type="matrix" values="0 0 0 0 1 0 0 0 0 1 0 0 0 0 1 0 0 0 0.63 0"/>
<feBlend mode="normal" in2="shape" result="effect2_innerShadow_7_75"/>
</filter>
<radialGradient id="paint0_radial_7_75" cx="0" cy="0" r="1" gradientUnits="userSpaceOnUse" gradientTransform="translate(81.5446 42.7361) rotate(90) scale(100.821 153.222)">
<stop offset="0.5" stop-color="#5FAF64"/>
<stop offset="1" stop-color="#28492A"/>
</radialGradient>
<radialGradient id="paint1_radial_7_75" cx="0" cy="0" r="1" gradientUnits="userSpaceOnUse" gradientTransform="translate(81.5446 42.7361) rotate(90) scale(100.821 153.222)">
<stop offset="0.5" stop-color="#5FAF64"/>
<stop offset="1" stop-color="#28492A"/>
</radialGradient>
<radialGradient id="paint2_radial_7_75" cx="0" cy="0" r="1" gradientUnits="userSpaceOnUse" gradientTransform="translate(81.5446 42.7361) rotate(90) scale(100.821 153.222)">
<stop offset="0.5" stop-color="#5FAF64"/>
<stop offset="1" stop-color="#28492A"/>
</radialGradient>
<radialGradient id="paint3_radial_7_75" cx="0" cy="0" r="1" gradientUnits="userSpaceOnUse" gradientTransform="translate(81.5446 42.7361) rotate(90) scale(100.821 153.222)">
<stop offset="0.5" stop-color="#5FAF64"/>
<stop offset="1" stop-color="#28492A"/>
</radialGradient>
</defs>
</svg>
