<?xml version="1.0" encoding="UTF-8"?>
<svg id="Capa_2" xmlns="http://www.w3.org/2000/svg" xmlns:xlink="http://www.w3.org/1999/xlink" viewBox="0 0 319 158">
  <defs>
    <style>
      .cls-1 {
        fill: #fff;
      }

      .cls-2 {
        fill: #fa1b5e;
      }

      .cls-3 {
        clip-path: url(#clippath);
      }
    </style>
    <clipPath id="clippath">
      <rect class="cls-2" width="319" height="158"/>
    </clipPath>
  </defs>
  <g id="Capa_1-2" data-name="Capa_1">
    <g>
      <rect class="cls-2" width="319" height="158"/>
      <g class="cls-3">
        <g>
          <g>
            <path class="cls-1" d="M294.84,111.91c-.27,0-.49-.21-.5-.48l-2.79-90.85c0-.22.13-.42.33-.49.21-.07.44,0,.57.17l27.63,36.95c.17.22.12.54-.1.7s-.54.12-.7-.1l-26.68-35.68,2.74,89.27c0,.28-.21.51-.48.52h-.02Z"/>
            <path class="cls-1" d="M265.91,62.71c-.09,0-.18-.02-.27-.08-.23-.15-.3-.46-.16-.69l25.97-41.38-22.2-31.35c-.16-.23-.11-.54.12-.7.23-.16.54-.11.7.12l22.4,31.62c.12.17.12.38.02.55l-26.14,41.66c-.09.15-.26.23-.42.23Z"/>
            <path class="cls-1" d="M292.05,21.05s-.07,0-.11-.01h0s-.09-.03-.13-.05c0,0,0,0,0,0h0c-.05-.03-.1-.07-.14-.12-.02-.03-.04-.06-.06-.09-.03-.07-.05-.14-.05-.21h0c0-.05,0-.1.02-.15h0s0,0,0,0c0-.03.02-.06.04-.09,5.59-11.17,10.32-22.54,14.59-33.17.1-.26.39-.38.65-.28s.38.39.28.65c-4.02,10.01-8.45,20.68-13.62,31.23.96-.59,2.09-1.08,3.43-1.49.23-.07.48.04.59.25,0,0,0,.01.01.02,4.51-2.2,8.88-4.7,13.15-7.15,6.11-3.5,12.43-7.11,19.1-9.82.25-.11.55.02.65.27.1.26-.02.55-.28.65-6.6,2.68-12.89,6.28-18.98,9.76-6.06,3.47-12.33,7.06-18.94,9.75-.03.01-.05.02-.08.03h0s-.07.01-.11.01Z"/>
            <path class="cls-1" d="M333.36,35.17c-.05,0-.11,0-.16-.03l-41.24-14.09-41.35-.37c-.28,0-.5-.23-.5-.5,0-.28.22-.54.5-.5l41.43.37c.05,0,.11,0,.16.03l41.31,14.12c.26.09.4.37.31.63-.07.21-.27.34-.47.34Z"/>
            <path class="cls-1" d="M259.87,45.08c-.15,0-.3-.07-.4-.2-.17-.22-.12-.53.1-.7l32.18-24.03c.22-.17.53-.12.7.1.17.22.12.53-.1.7l-32.18,24.03c-.09.07-.19.1-.3.1Z"/>
            <path class="cls-1" d="M293.32,62.51c-.18,0-.35-.1-.44-.26-4.25-7.59-14.14-9.08-22.06-7.2-.15.03-.31,0-.43-.1-.12-.1-.19-.24-.19-.4.07-5.17-3.51-9.92-8.35-11.06-.14-.03-.26-.12-.33-.25-.07-.13-.08-.27-.03-.41,3.08-8.37-.21-18.11-7.49-22.19-.24-.13-.33-.44-.19-.68.13-.24.44-.33.68-.19,7.55,4.22,11.05,14.19,8.12,22.89,4.81,1.4,8.37,6.09,8.57,11.28,7.88-1.68,17.44-.15,22.05,6.97,3.86-8.07,14.46-9.73,23.17-7.8.97-8.87,7.57-14.82,14.64-19.9-.57-2.74-1.45-5.53-2.3-8.24-2.04-6.48-4.14-13.16-2.63-20.26-.24-.13-.41-.39-.48-.72-.06-.31-.01-.68.16-1.02-3.84.12-8.5-.02-9.79-1.69,0,0,0,0,0,0-.12.06-.26.08-.39.03-.24-.08-.39-.33-.33-.58.78-3.62.69-7.41.61-11.08l-.03-1.37c0-.28.21-.5.49-.51.26.04.5.21.51.49l.03,1.37c.07,3.23.15,6.55-.35,9.81.15.12.21.33.15.53-.09.29-.05.5.11.71.58.75,2.8,1.57,10.09,1.26h.34s.04-.02.06-.01h0s.08.01.12.03h0c.07.02.14.06.19.12.06.06.1.13.12.2,0,0,0,0,0,0h0s0,0,0,0h0s0,0,0,0h0s0,0,0,0h0s.01.05.02.08h0s0,0,0,0h0s0,0,0,0h0s0,.07,0,.11c-.09.9-.27,1.54-.54,1.92-1.68,7.05.43,13.77,2.48,20.28.89,2.84,1.82,5.77,2.39,8.66.04.19-.04.39-.2.5-7.13,5.09-13.82,11.03-14.54,19.93-.01.15-.09.28-.21.37-.12.09-.27.11-.41.08-8.72-2.11-19.63-.51-22.96,7.96-.07.18-.24.3-.43.32-.01,0-.02,0-.03,0Z"/>
            <path class="cls-1" d="M293.11,55.48c-.19,0-.36-.1-.44-.27-.24-.46-5.99-11.1-18.89-4.74-.18.09-.4.06-.55-.07-.15-.13-.21-.35-.14-.54.01-.03,1.03-3.1-.5-5.81-1.08-1.92-3.17-3.24-6.22-3.91-.13-.03-.25-.11-.32-.23-.07-.12-.09-.25-.06-.39.15-.57,3.45-14.07-11.87-18.84-.18-.06-.32-.21-.35-.41s.06-.38.22-.49c17.07-11.49,16.61-28.66,16.61-28.83,0-.16.07-.32.2-.42.13-.1.3-.13.46-.08,20.19,6.72,33.64-.46,33.77-.54.12-.07.27-.08.4-.03.13.05.24.15.3.28,5.48,12.79,17.83,13.6,17.95,13.61.17,0,.32.1.4.24.08.14.09.32.02.47-6.58,13.71.86,26.79.94,26.92.08.14.09.32.02.47-.07.15-.21.25-.38.28-5.18.8-8.8,2.77-10.74,5.86-2.7,4.29-1.22,9.34-1.21,9.39.05.17,0,.36-.11.49-.12.13-.3.19-.48.15-14.01-3.17-18.4,6.7-18.57,7.12-.08.18-.25.3-.44.3h-.02ZM281.46,47.48c6.58,0,10.36,4.63,11.62,6.5,1.43-2.44,6.63-9.4,18.51-7.07-.34-1.69-.8-5.73,1.5-9.4,2.02-3.21,5.63-5.3,10.75-6.21-1.39-2.79-6.43-14.37-.94-26.58-2.78-.38-12.86-2.52-17.89-13.65-2.6,1.22-15.31,6.39-33.43.58-.11,3.36-1.46,17.99-16.21,28.42,13.52,4.76,12.16,16.64,11.69,19.22,3.08.77,5.23,2.21,6.4,4.29,1.17,2.09,1.05,4.3.83,5.56,2.68-1.19,5.07-1.66,7.17-1.66Z"/>
            <path class="cls-1" d="M292.85,46.9c-.18,0-.35-.1-.44-.26-.18-.34-4.58-8.17-13.86-3.77-.17.08-.37.06-.52-.06-.15-.12-.22-.31-.18-.5,0-.03.56-2.76-.9-4.73-.89-1.19-2.35-1.87-4.35-2.04-.15-.01-.28-.09-.37-.21s-.11-.27-.07-.42c.02-.06,1.69-6.5-1.09-10.66-1.28-1.92-3.32-3.08-6.08-3.45-.23-.03-.4-.21-.43-.44s.1-.44.32-.52c12.91-4.96,11.41-20.67,11.39-20.82-.02-.2.08-.38.25-.48.17-.1.38-.09.54.02,11.31,8.05,23.71.88,23.83.8.13-.08.29-.09.43-.04.14.05.25.16.3.3,3,8.44,12.28,9.15,12.37,9.16.15,0,.29.09.38.22.09.13.11.29.06.43-3.97,12.47,1.71,18.84,1.77,18.91.12.13.17.33.11.5-.06.17-.21.3-.39.33-9.01,1.54-8.23,11.21-8.19,11.62.01.16-.05.31-.17.42-.12.1-.28.15-.43.12-10.43-2.15-13.78,5.2-13.81,5.28-.08.17-.25.29-.44.3,0,0-.01,0-.02,0ZM283.87,40.55c4.89,0,7.85,3.38,8.94,4.89,1.22-1.93,5.19-6.75,13.88-5.21-.02-2.31.51-10.06,8.24-11.88-1.39-1.95-4.79-8.12-1.64-18.64-2.18-.32-9.51-1.92-12.42-9.2-2.47,1.26-13.3,6.08-23.55-.56.1,3.54-.4,15.25-10.6,20.19,2.26.61,4,1.8,5.18,3.58,2.55,3.83,1.72,9.16,1.35,10.91,2.01.27,3.53,1.07,4.5,2.38,1.17,1.58,1.26,3.49,1.19,4.61,1.82-.75,3.47-1.06,4.94-1.06Z"/>
            <path class="cls-1" d="M292.59,38.7c-.18,0-.34-.09-.43-.25-.12-.21-3.07-5.01-9.11-2.83-.17.06-.35.03-.49-.09-.14-.11-.2-.29-.17-.47.03-.16.61-3.84-3.09-4.58-.15-.03-.27-.12-.34-.26-.07-.13-.08-.29-.02-.43.1-.24,2.47-5.94-3.93-8.94-.19-.09-.31-.29-.29-.5s.17-.39.38-.44c7.47-1.81,6.82-12.82,6.81-12.93-.01-.19.08-.37.25-.46.16-.1.37-.09.53.01,8.21,5.31,14.99-.38,15.28-.62.14-.12.33-.15.5-.09.17.06.29.22.32.4.36,2.52,1.33,4.29,2.88,5.28,2.46,1.57,5.63.64,5.67.63.19-.06.4,0,.53.16.13.15.15.37.06.55-4.11,8,1.2,12.93,1.42,13.14.15.14.2.35.14.54-.07.19-.25.32-.45.33-2.22.1-3.89.8-4.97,2.08-1.76,2.08-1.4,5.06-1.4,5.09.02.14-.03.29-.13.4-.1.11-.23.16-.38.17-6.75-.22-9.11,3.82-9.13,3.86-.09.16-.25.25-.43.25h0ZM286.05,34.06c3.48,0,5.67,2.19,6.54,3.28.96-1.21,3.64-3.74,9.05-3.76-.03-1.07.1-3.43,1.66-5.29,1.09-1.3,2.66-2.09,4.67-2.35-1.4-1.74-4.17-6.29-1.38-12.63-1.28.19-3.51.27-5.46-.96-1.63-1.04-2.71-2.78-3.2-5.17-1.98,1.35-8.02,4.68-15.01.68-.02,2.68-.61,10.37-6.42,12.67,4.88,2.92,4.02,7.54,3.54,9.12,2.74.81,3.42,3.16,3.4,4.81.93-.27,1.8-.38,2.6-.38Z"/>
            <path class="cls-1" d="M292.4,32.45c-.18,0-.35-.1-.44-.26-.08-.14-1.88-3.4-5.66-1.68-.19.09-.41.05-.56-.1-.15-.15-.19-.37-.1-.56,0-.01.52-1.15.11-2.06-.23-.5-.71-.86-1.44-1.07-.13-.04-.24-.13-.31-.26s-.07-.27-.02-.4c1.07-2.88-.59-5.18-.66-5.28-.1-.13-.12-.31-.07-.47s.19-.28.35-.32c1.2-.29,2.08-.9,2.6-1.81,1.1-1.92.33-4.59.33-4.61-.06-.21.02-.45.21-.57.19-.12.43-.1.6.05,3.24,2.92,7.58-.43,7.77-.58.14-.11.32-.14.48-.08.16.06.28.2.32.37.62,3.2,3.98,3.15,4.14,3.16.15.01.31.07.41.19.1.12.13.29.09.44-1.26,4.62,1.79,6.98,1.82,7.01.16.12.23.31.19.5-.04.19-.19.34-.38.38-1.29.3-2.2.88-2.7,1.74-.81,1.39-.31,3.06-.3,3.08.05.17,0,.36-.12.49-.12.13-.31.18-.48.14-4.26-1.07-5.65,2.09-5.71,2.23-.07.18-.25.3-.44.31h-.02ZM288.4,29c2,0,3.31,1.22,3.96,2.03.73-1.04,2.44-2.75,5.69-2.24-.09-.77-.09-1.98.55-3.09.52-.9,1.35-1.56,2.48-1.97-.93-1.03-2.4-3.31-1.66-6.83-1.45-.15-3.54-.96-4.31-3.23-1.32.83-4.52,2.47-7.38.88.13,1.1.13,2.73-.66,4.12-.56.98-1.43,1.68-2.58,2.1.5.93,1.26,2.85.59,5.15.76.32,1.29.8,1.58,1.45.29.64.28,1.32.19,1.86.56-.16,1.08-.23,1.55-.23Z"/>
            <path class="cls-1" d="M292.24,27.26s-.04,0-.05,0c-.2-.02-.36-.15-.42-.34,0,0-.29-.85-1-1.16-.43-.19-.96-.15-1.57.12-.15.07-.33.05-.48-.04-.14-.09-.23-.25-.23-.42,0-.18-.06-.76-.33-1.03-.1-.1-.23-.13-.39-.14-.18.02-.32-.08-.41-.21s-.12-.3-.07-.46c.03-.08.69-2.03-.69-2.62-.19-.08-.31-.27-.3-.48,0-.21.14-.39.34-.46.08-.03,1.97-.74,2.04-3.54,0-.16.08-.3.21-.39.13-.09.29-.12.44-.07.03.01,3.08.92,4.67-1.14.13-.17.36-.24.57-.17.2.07.34.27.33.49,0,.07,0,1.81,2.16,2.35.17.04.3.16.35.33.05.16.02.34-.09.47-1.29,1.58.13,3.55.19,3.63.09.12.12.28.08.42-.04.14-.14.27-.27.33-1.54.72-1.33,2.3-1.32,2.37.02.15-.03.31-.13.42s-.26.17-.41.15c-1.88-.17-2.75,1.27-2.79,1.33-.09.15-.26.25-.43.25ZM290.19,24.63c.35,0,.68.07,1,.21.53.24.91.64,1.15,1,.5-.51,1.38-1.14,2.66-1.18.04-.79.38-1.86,1.42-2.56-.51-.93-.95-2.43-.25-3.79-1.2-.48-1.81-1.33-2.08-2.09-1.51,1.23-3.47,1.08-4.44.9-.22,1.89-1.17,2.92-1.88,3.42.78.77.81,1.95.64,2.81.18.07.34.18.48.32.31.3.47.71.54,1.06.26-.07.52-.1.77-.1Z"/>
            <path class="cls-1" d="M292.15,24.29h-.01c-.17,0-.33-.09-.42-.24-.13-.21-.51-.66-1.18-.25-.17.11-.4.1-.56-.03-.16-.12-.24-.33-.18-.53.01-.05.03-.2-.03-.28-.04-.06-.16-.09-.23-.1-.16-.02-.31-.13-.38-.28-.07-.15-.07-.33.02-.47.02-.03.47-.83-.05-1.17-.15-.1-.23-.28-.22-.46.02-.18.13-.34.3-.41.03-.01.81-.4.8-1.69,0-.16.07-.31.2-.41.13-.1.3-.12.45-.07.06.02,1.53.45,2.52-1.18.11-.19.34-.28.55-.22.21.06.37.25.37.47,0,.06.1,1.53,1.05,1.48.21,0,.36.09.46.26.09.16.08.37-.02.52-.08.12-.77,1.24.35,2.17.16.13.22.36.15.56-.07.2-.26.3-.48.33h0c-.16,0-.63.06-.88.32-.14.14-.21.34-.21.6,0,.18-.09.34-.25.43-.15.09-.34.09-.5,0-.16-.08-.73-.31-1.22.43-.09.14-.25.22-.42.22ZM291.06,22.63c.15,0,.28.02.38.05.29.07.52.21.7.36.49-.45,1.04-.54,1.49-.48.08-.26.22-.49.41-.67.2-.2.43-.33.65-.42-.47-.75-.43-1.54-.23-2.14-.2-.08-.39-.19-.55-.35-.27-.25-.44-.56-.56-.87-.79.73-1.69.91-2.37.86-.12.81-.48,1.32-.81,1.63.29.47.25,1.04.11,1.49.16.1.26.22.33.33.05.08.09.16.12.24.12-.02.22-.03.32-.03Z"/>
          </g>
          <path class="cls-1" d="M300.65,75.16l-.18-1.77s0,0,0,0c0,0,0,0,0,0l-.51-1.57c-.02-.07-.09-.14-.17-.12-.09.02-.12.11-.1.18l.37,1.51.04,1.76c-.09.06-.18.14-.28.25-.41.48-1.75,1.94-2.32,2.27-.21-.07-.76,0-1.09.06.09-.14.18-.29.25-.45.1-.21.17-.44.22-.67.82-.45,1.45-1.06,1.47-1.09.02-.02.03-.05.03-.08.12-.33,1.23-3.38.86-4.2,0,0,0,0,0,0,0,0,0,0,0-.01l-1.11-1.4s0,0,0,0c0,0,0,0,0,0l-1.27-1.05c-.06-.05-.15-.07-.21-.01-.06.07-.04.16.01.21l1.12,1.07.98,1.46c-.05.1-.08.22-.1.36-.08.62-.43,2.58-.74,3.16-.22.06-.66.43-.92.66,0-.57-.11-1.15-.35-1.68-.98-2.26-3.01-2.82-3.03-2.83-.02,0-.03,0-.05,0-.02,0-2.01.7-2.84,3.02-.2.55-.27,1.13-.23,1.7-.27-.21-.73-.55-.96-.6-.35-.57-.82-2.49-.95-3.11-.03-.14-.07-.26-.12-.35l.88-1.52,1.05-1.14c.05-.05.06-.15,0-.21-.06-.06-.15-.03-.21.02l-1.2,1.14s0,0,0,0c0,0,0,0,0,0l-1.01,1.47s0,0,0,.01c0,0,0,0,0,0-.32.84.99,3.81,1.14,4.13,0,.03.01.06.03.08.03.02.69.6,1.54.99.07.23.16.45.27.65.08.15.18.3.28.43-.33-.03-.88-.07-1.09.01-.6-.29-2.03-1.66-2.47-2.11-.1-.1-.2-.18-.29-.23l-.08-1.76.27-1.53c.01-.07-.02-.16-.11-.17-.08-.01-.14.06-.16.13l-.4,1.61s0,0,0,0c0,0,0,0,0,0l-.06,1.78s0,0,0,.01c0,0,0,0,0,0,0,0,0,0,0,.01,0,0,0,0,0,0,.21.88,2.89,2.67,3.18,2.86.02.02.04.04.07.05.15.02.55.06,1.05.04.23,0,.47-.03.73-.06.04.03.07.05.11.08-.54.19-1,.51-1.21.66-.04.03-.07.05-.09.06-.02.02-.04.04-.04.07-.17.26-1.64,2.58-1.5,3.35,0,0,0,0,0,0,0,0,0,0,0,.01,0,0,0,0,0,0,0,0,0,0,0,.01l.67,1.37s0,0,0,0c0,0,0,0,0,0l.87,1.12s.08.07.13.07c.02,0,.04,0,.06-.02.07-.05.07-.13.03-.19l-.74-1.1-.55-1.39c.06-.07.1-.17.15-.28.19-.5.83-2.07,1.2-2.51.23-.03.81-.38,1.21-.65,0,.08.03.17.06.25-.51.35-.96.86-1.06.98-.01.02-.02.04-.02.07-.06.23-.66,2.61-.33,3.22,0,0,0,0,0,0,0,0,0,0,0,.01,0,0,0,0,0,0,0,0,0,0,0,.01l.94.96s0,0,0,0c0,0,0,0,0,0l1.04.69s.06.03.1.03c.03,0,.06-.01.09-.04.05-.06.02-.14-.03-.18l-.92-.71-.84-1.01c.03-.08.04-.17.04-.27.02-.47.12-1.95.31-2.42.21-.09.69-.55,1-.87.07.06.16.11.25.15,0,.11.04.37.23.58,0,0,0,0,0,0-.04.09-.1.26-.06.47.04.26.27.34.37.37.01,0,.02,0,.03,0,.03,0,.05-.02.07-.04.02-.03.01-.08-.02-.1,0,0-.12-.1-.09-.3t.05-.05s.09-.04.15-.1c.11.02.23.03.36.03.13,0,.25-.02.35-.05.06.05.12.08.16.09t.05.05c.04.2-.07.3-.07.31-.03.03-.03.07,0,.1.02.02.04.04.07.04.01,0,.02,0,.03,0,.09-.04.31-.14.34-.4.02-.22-.05-.39-.09-.47,0,0,0,0,0,0,.18-.22.2-.48.2-.59.09-.05.17-.1.24-.16.34.29.84.72,1.06.8.22.45.42,1.92.47,2.39.01.1.03.19.06.27l-.77,1.06-.87.77s-.07.12-.02.18c.02.03.06.04.09.04.03,0,.07-.01.1-.04l.99-.76s0,0,0,0c0,0,0,0,0,0l.87-1.02s0,0,0-.01c0,0,0,0,0,0,0,0,0,0,0-.01.29-.63-.46-2.96-.54-3.19,0-.02,0-.05-.02-.06-.11-.11-.6-.58-1.13-.91.02-.09.03-.17.04-.26.42.24,1.02.55,1.26.56.4.41,1.14,1.93,1.36,2.42.05.11.1.2.16.27l-.45,1.43-.67,1.15c-.03.06-.03.15.04.19.02.01.04.02.06.02.05,0,.1-.03.12-.08l.8-1.17s0,0,0,0c0,0,0,0,0,0l.57-1.42s0,0,0-.01c0,0,0,0,0,0,0,0,0,0,0-.01,0,0,0,0,0,0,.09-.78-1.53-3-1.72-3.24,0-.03-.02-.05-.05-.06-.02-.01-.05-.03-.09-.06-.22-.13-.7-.43-1.25-.58.04-.03.07-.06.11-.09.26.02.5.02.73.01.5-.02.9-.08,1.05-.11.03,0,.05-.03.07-.05.28-.21,2.83-2.17,2.98-3.07,0,0,0,0,0,0,0,0,0,0,0-.01,0,0,0,0,0,0,0,0,0,0,0-.01Z"/>
        </g>
      </g>
    </g>
  </g>
</svg>