<?xml version="1.0" encoding="UTF-8"?>
<svg id="Capa_2" xmlns="http://www.w3.org/2000/svg" viewBox="0 0 255.32 255.32">
  <defs>
    <style>
      .cls-1 {
        fill: #fff;
      }
    </style>
  </defs>
  <g id="OBJECT">
    <g>
      <circle cx="127.66" cy="127.66" r="127.66"/>
      <path class="cls-1" d="M202.68,183.99c0-.59-.02-1.19,0-1.78.42-11.84.06-23.66-2.07-35.33-2.56-13.97-7.18-27.24-14.14-39.66-.98-1.75-2.25-3.33-3.45-4.95-.47-.64-1.07-1.21-1.68-1.73-1.27-1.08-1.54-.93-2.25.51-.65,1.31-1.45,2.58-2.33,3.75-4.42,5.88-9.86,10.7-15.8,14.99-.63.45-.95.39-1.43-.26-2.58-3.56-5.17-7.12-7.87-10.58-2.36-3.03-5.61-4.72-9.25-5.77-.68-.2-.88.11-1.09.65-.23.57,0,.83.49.97,4.46,1.24,7.48,4.41,10.2,7.86,2.48,3.16,4.7,6.52,7.02,9.81.37.53.79.69,1.37.45.18-.08.37-.17.53-.29,6.67-4.68,12.74-9.98,17.34-16.79.47-.7.88-1.43,1.34-2.13.25-.38.57-.72,1.11-1.4.28.45.42.8.66,1.07,5.17,5.9,8.67,12.74,11.39,20.03,3.35,8.98,5.25,18.3,6.75,27.74,2.43,15.25,1.33,30.4-.9,45.54-.21,1.44-.57,2.87-1.39,4.1-.1,0-.2-.01-.3-.02-.04-.6-.1-1.2-.1-1.8,0-5.84.15-11.69-.03-17.53-.49-15.87-2.42-31.53-7.23-46.73-2.1-6.65-4.71-13.08-8.53-18.95-.58-.89-1.25-1.72-1.89-2.59-.19.13-.29.17-.34.24-5.34,7.17-12.16,12.77-19.28,18.03-1.73,1.28-2.62.97-3.38-1.1-1.55-4.21-3.43-8.24-5.93-11.97-2.8-4.17-6.28-7.6-10.75-9.95-.44-.23-1.33-.38-1.5-.16-.44.55-.65,1.32-.82,2.03-.06.26.22.61.37.91,2.74,5.35,6.57,9.7,11.73,12.85,2.6,1.59,2.64,1.79,1.84,4.72-6.21,22.77-12.41,45.53-18.62,68.3-.3,1.1-.58,2.21-.92,3.3-.12.39-.36.74-.54,1.11-.09,0-.19-.02-.28-.03-.05-.36-.14-.72-.14-1.08-.03-3.09-.02-6.18-.07-9.27-.02-1.29-.95-2.44-2.03-2.71-1.37-.34-2.58.1-3.29,1.33-.27.47-.4,1.08-.41,1.62-.05,2.99-.05,5.98-.07,8.96,0,.37-.06.75-.1,1.12-.11.02-.22.05-.33.07-.23-.53-.52-1.04-.67-1.58-1.2-4.4-2.36-8.82-3.56-13.22-5.3-19.43-10.61-38.86-15.93-58.29-.66-2.41-.52-2.89,1.65-4.19,5.33-3.21,9.31-7.65,12.07-13.19.23-.45.41-1.04.32-1.52-.27-1.47-1.15-1.77-2.49-1.04-6.75,3.66-10.98,9.52-14.18,16.26-.86,1.82-1.58,3.7-2.32,5.57-.83,2.09-1.66,2.42-3.46,1.09-7.06-5.23-13.83-10.78-19.14-17.89-.08-.11-.13-.24-.28-.55-.81,1.12-1.52,2-2.13,2.94-3.01,4.65-5.24,9.68-7.1,14.87-4.22,11.77-6.45,23.97-7.67,36.37-1.04,10.58-1.23,21.18-.93,31.8.02.61-.05,1.22-.08,1.83-.11.02-.22.04-.33.06-.22-.46-.55-.9-.64-1.39-.54-2.69-1.25-5.38-1.48-8.1-.64-7.39-1.56-14.8-1.49-22.19.18-17.71,3.28-34.93,10.39-51.28,2.28-5.23,5.22-10.07,9-14.37.24-.28.49-.54.87-.96.36.42.73.75.97,1.15,4.63,7.79,11.22,13.65,18.51,18.82,1.23.87,1.57.7,2.35-.53,3.43-5.44,7.13-10.69,12.22-14.74,1.28-1.02,2.94-1.56,4.43-2.3.5-.25,1.12-.29.78-1.17-.3-.78-.72-.67-1.34-.5-3.95,1.11-7.22,3.23-9.7,6.5-2.6,3.42-5.15,6.87-7.81,10.42-.17-.09-.48-.2-.74-.39-5.93-4.24-11.36-9.03-15.74-14.89-1.05-1.41-1.84-3.02-2.68-4.58-.35-.64-.78-.63-1.22-.31-.7.51-1.39,1.06-1.97,1.7-2.34,2.58-4.16,5.53-5.7,8.63-7.29,14.72-12.22,30.14-13.75,46.57-.81,8.68-.96,17.36-.67,26.06.01.35,0,.7,0,1.05-.1.04-.21.08-.31.11-.28-.45-.7-.87-.83-1.36-.7-2.69-1.57-5.36-1.93-8.1-2.21-17.02-.32-33.61,5.45-49.78,4.35-12.19,9.7-23.88,16.84-34.7.91-1.37,1.87-2.71,2.82-4.05.24-.34.56-.63.92-1.02.15.29.31.45.32.62.1,2.28,1.22,4.17,2.35,6.04,3.5,5.81,7.85,10.97,12.27,16.07.9,1.04,1.82,2.07,2.74,3.09.68.76,1.08.77,1.7-.03,2.66-3.47,6.03-6.19,9.25-9.09,2.22-2,4.88-2.38,7.66-2.52.88-.04,1.33-.6.91-1.16-.19-.26-.67-.41-1.02-.42-2.75-.05-5.32.66-7.73,1.95-3.73,1.98-6.61,4.9-9.07,8.28-.7.96-.71,1-1.53.13-7.01-7.45-13.34-15.37-17.18-25-.06-.15-.16-.29-.36-.64-.64.65-1.25,1.19-1.76,1.82-4.26,5.26-7.93,10.92-11.1,16.9-10.17,19.14-15.23,39.56-15.34,61.23,0,.61-.06,1.23-.09,1.84-.12.03-.23.05-.35.08-.23-.46-.5-.9-.68-1.37-1.3-3.29-1.58-6.78-1.91-10.26-1.2-12.62,1.06-24.73,5.32-36.57,6.02-16.76,15.24-31.57,27.03-44.83.85-.95,1.68-1.92,2.57-2.83.62-.63,1.05-.53,1.16.3.83,6.24,3.54,11.82,6.29,17.34,2.2,4.41,4.75,8.65,7.18,12.94.81,1.42.91,1.35,2.23.34,1.36-1.04,2.76-2.03,4.21-2.92,2.95-1.81,6.17-2.55,9.64-2.21.77.08,1.55.1,2.31.06.34-.02.67-.29,1.01-.44-.28-.27-.52-.7-.85-.79-2.64-.69-5.3-.78-7.98-.18-3.25.73-6.25,2.05-8.99,3.92-.51.35-.77.24-1.05-.2-.18-.28-.37-.56-.53-.86-3.8-7.03-7.4-14.17-10.34-21.61-1.07-2.71-2.11-5.45-2.26-8.42-.04-.78-.43-.98-1.04-.49-.91.74-1.86,1.45-2.66,2.3-13.64,14.49-24.22,30.87-30.49,49.86-2.86,8.67-4.48,17.55-4.46,26.71,0,.78,0,1.57-.23,2.42-.24-.56-.52-1.11-.71-1.69-1.36-4.12-1.86-8.38-1.95-12.7-.18-8.73,1.8-17.05,4.88-25.15,4.28-11.25,10.2-21.62,17.33-31.27,3.55-4.8,7.36-9.42,11.3-13.9,2.81-3.2,6.29-5.67,10.37-7.1,1.19-.42,2.46-.62,3.72-.83.78-.14,1.03.22.9,1.07-.12.8-.06,1.69.16,2.47,1.06,3.78,2.1,7.57,3.33,11.29,2,6.02,4.15,11.99,6.21,17.99.33.97.75,1.31,1.89,1.18,4.56-.53,9.13-.56,13.62.53,1.41.34,2.7,1.14,4.06,1.67.41.16.91.11,1.37.16-.12-.44-.12-.99-.4-1.28-.73-.79-1.6-1.43-2.36-2.19-1.91-1.92-2.16-3.78-.76-6.1,1.72-2.85,4.27-4.86,7.1-6.65-.21.39-.43.78-.64,1.17-1.13,2.07-2.12,4.2-2.43,6.57-.25,1.98.34,3.31,1.78,4.11.91-1.52,1.83-3.04,2.74-4.56l.43.15c0,.27-.02.54,0,.81.11,1.3.1,2.63.38,3.89.17.77.69,1.53,1.23,2.13.76.84,1.85.79,2.7.03,1.05-.94,1.41-2.2,1.51-3.52.09-1.09.02-2.19.02-3.59,1.71,1.34,2.3,3.1,3.13,4.75,1.29-.65,1.97-1.69,1.86-2.95-.13-1.55-.42-3.12-.92-4.59-.52-1.53-1.36-2.96-2.17-4.67,3.1,2.26,5.93,4.42,7.57,7.76.81,1.66.52,3.23-.63,4.6-.66.79-1.48,1.45-2.23,2.18-.36.35-.76.68-1.04,1.08-.14.2-.18.64-.06.81.13.18.52.17.8.22.08.01.2-.05.28-.1,3.5-2.46,7.56-2.58,11.59-2.69,2.17-.06,4.37.08,6.53.3.99.1,1.39-.19,1.69-1.05,1.43-4.16,2.98-8.28,4.35-12.46,1.78-5.45,3.48-10.94,5.11-16.44.31-1.05.21-2.23.22-3.36,0-.61.32-.82.81-.74,1.28.23,2.6.39,3.82.82,4.55,1.6,8.27,4.51,11.4,8.07,12.36,14.07,22.53,29.49,28.76,47.29,2.7,7.71,4.17,15.63,3.74,23.83-.19,3.63-.7,7.22-1.81,10.7-.21.65-.51,1.28-.97,1.89-.04-.14-.12-.28-.11-.42.43-14.31-3.24-27.71-9.08-40.62-5.53-12.24-12.87-23.32-21.75-33.38-1.95-2.21-4.08-4.26-6.14-6.38-.21-.21-.47-.38-.73-.54-.52-.32-.86-.16-.89.44-.31,4.63-2.2,8.78-4.1,12.88-2.66,5.76-5.58,11.39-8.4,17.08-.12.24-.28.46-.4.7-.39.76-.72.93-1.59.38-4.31-2.71-8.91-4.56-14.16-4.01-.83.09-1.67.23-2.47.45-.35.1-.62.48-.92.74.35.17.7.48,1.06.49,1.21.03,2.42.02,3.62-.08,2.75-.22,5.28.54,7.61,1.88,1.77,1.01,3.43,2.22,5.08,3.43,1.1.81,1.23.85,1.97-.34,3.54-5.68,6.78-11.52,9.42-17.67,1.23-2.86,2.27-5.81,3.31-8.75.38-1.07.47-2.23.73-3.34.11-.46.33-.9.5-1.35.38.25.83.44,1.12.77,2.79,3.23,5.65,6.4,8.29,9.74,11.95,15.13,20.45,31.98,24.82,50.81,2.33,10.07,2.29,20.25.49,30.42-.28,1.58-.75,3.11-1.63,4.47-.1,0-.21,0-.31-.01-.04-.53-.12-1.06-.12-1.59-.02-7.91-.68-15.77-2.13-23.54-3.38-18.17-10.11-34.97-20.75-50.14-1.21-1.73-2.54-3.38-3.85-5.04-.4-.51-.92-.93-1.43-1.43-.18.23-.29.32-.33.43-3.1,7.93-7.99,14.73-13.53,21.09-1.26,1.44-2.59,2.82-3.87,4.24-.52.58-.83.5-1.29-.14-3.09-4.3-6.78-7.94-11.97-9.59-1.61-.51-3.35-.57-5.04-.81-.58-.08-1.09.19-.98.81.06.31.57.65.93.75.61.16,1.27.11,1.9.17,2.16.2,4.09.87,5.76,2.35,3.27,2.89,6.65,5.67,9.32,9.16.51.67,1.04.74,1.65.05,5.05-5.71,10.1-11.44,14.21-17.89,1.08-1.69,1.94-3.52,2.78-5.35.35-.75.37-1.65.61-2.83.58.7,1,1.16,1.36,1.65,4.79,6.6,8.79,13.66,12.26,21.03,5.08,10.75,9.25,21.84,11.54,33.53,2.49,12.75,2.65,25.55.14,38.34-.24,1.24-.77,2.42-1.22,3.61-.14.37-.46.67-.71,1-.09-.04-.19-.09-.28-.13Z"/>
    </g>
  </g>
</svg>