<svg width="49" height="49" viewBox="0 0 49 49" fill="none" xmlns="http://www.w3.org/2000/svg">
<g clip-path="url(#clip0_674_2527)">
<mask id="mask0_674_2527" style="mask-type:luminance" maskUnits="userSpaceOnUse" x="0" y="0" width="49" height="49">
<path d="M48.1783 24.4284C48.1783 11.1822 37.4401 0.444092 24.1939 0.444092C10.9478 0.444092 0.209625 11.1822 0.209625 24.4284C0.209625 37.6746 10.9478 48.4127 24.1939 48.4127C37.4401 48.4127 48.1783 37.6746 48.1783 24.4284Z" fill="white"/>
</mask>
<g mask="url(#mask0_674_2527)">
<path d="M48.1783 24.4284C48.1783 11.1822 37.4401 0.444092 24.1939 0.444092C10.9478 0.444092 0.209625 11.1822 0.209625 24.4284C0.209625 37.6746 10.9478 48.4127 24.1939 48.4127C37.4401 48.4127 48.1783 37.6746 48.1783 24.4284Z" fill="#FF7B7B"/>
<path d="M17.008 28.9572L37.4136 33.1226C40.8302 34.7019 43.1395 38.2255 43.8692 39.7861L51.5709 64.7723C54.1507 71.3537 47.8585 75.2863 44.3852 76.4315L12.4272 83.095L11.6974 77.0545H0.868519L6.80204 46.4493L-3.61151 52.1752C-7.02815 54.9249 -12.1123 53.3205 -14.2327 52.1752L-32.7505 36.9733L-26.6093 28.9572L-8.18594 41.3464C-3.95129 38.8106 1.611 34.9535 4.16562 33.1226C8.26184 30.184 12.7859 28.1959 17.008 28.9572Z" fill="#FECB4B"/>
<path d="M32.6378 19.0654C32.6378 23.9482 29.1016 27.906 24.7411 27.906C24.7411 27.906 19.6633 24.0992 17.5617 19.6191C15.7118 14.6483 20.3744 10.2312 24.7411 10.2312C29.1016 10.2249 32.6378 14.1827 32.6378 19.0654Z" fill="black"/>
<path d="M17.7754 20.4497L17.3413 18.7446C16.8442 16.6052 19.4491 10.3319 27.3899 15.2147C28.0255 17.2785 29.3216 21.6893 29.3216 21.6893C30.8128 20.456 32.8577 20.6763 33.3486 22.1549C34.0155 24.7851 31.8825 25.559 29.5606 25.4583V27.862V32.0023C29.5606 32.0023 28.7112 33.0656 27.7548 33.5437C24.5333 35.3308 21.5004 33.1601 20.7201 32.0023V28.1766C19.7637 28.1766 17.7691 28.2961 16.9323 26.6224C16.0828 24.9109 16.9637 21.9095 17.7754 20.4497Z" fill="#6983FF"/>
<path d="M20.7014 29.8378L23.6776 27.8745C23.6776 27.8745 22.7527 28.0319 22.1675 28.0884C21.5949 28.1452 20.7014 28.1766 20.7014 28.1766V29.8378Z" fill="black"/>
<path d="M20.89 19.0657C20.6006 20.5695 21.7521 21.4504 21.7521 21.4504L20.3804 23.8792H22.0037" stroke="black" stroke-width="0.5" stroke-linecap="round"/>
<path d="M23.7406 19.0468C24.2189 18.965 24.697 18.9776 25.0304 19.0656" stroke="black" stroke-width="0.5" stroke-linecap="round"/>
<path d="M18.6315 18.7572C19.1097 18.6754 19.5879 18.688 19.9214 18.7761" stroke="black" stroke-width="0.5" stroke-linecap="round"/>
<path d="M22.9974 25.358C23.4253 25.1315 23.8028 24.8294 24.0041 24.5525" stroke="black" stroke-width="0.5" stroke-linecap="round"/>
<path d="M30.3664 23.2249L32.0904 21.8218" stroke="black" stroke-width="0.5" stroke-linecap="round"/>
<path d="M31.6304 22.3313L32.5492 23.2248" stroke="black" stroke-width="0.5" stroke-linecap="round"/>
<path d="M24.4516 21.2681C24.6115 21.2681 24.7412 21.1385 24.7412 20.9786C24.7412 20.8188 24.6115 20.6892 24.4516 20.6892C24.2918 20.6892 24.1621 20.8188 24.1621 20.9786C24.1621 21.1385 24.2918 21.2681 24.4516 21.2681Z" fill="black"/>
<path d="M19.3488 20.9785C19.5086 20.9785 19.6382 20.8489 19.6382 20.6891C19.6382 20.5292 19.5086 20.3997 19.3488 20.3997C19.1889 20.3997 19.0593 20.5292 19.0593 20.6891C19.0593 20.8489 19.1889 20.9785 19.3488 20.9785Z" fill="black"/>
<path d="M24.7407 10.2251C21.8714 10.2251 18.8701 12.1379 17.6808 14.8561L32.5745 17.9141C32.0711 13.5788 28.7551 10.2251 24.7407 10.2251Z" fill="#FECB4B"/>
<path d="M32.3668 17.8641L12.666 13.8308" stroke="black" stroke-width="0.5" stroke-linecap="round"/>
</g>
</g>
<defs>
<clipPath id="clip0_674_2527">
<rect width="48.2915" height="48.05" fill="white" transform="translate(0 0.398682)"/>
</clipPath>
</defs>
</svg>
