<svg width="74" height="71" viewBox="0 0 74 71" fill="none" xmlns="http://www.w3.org/2000/svg">
<g clip-path="url(#clip0_396_4220)">
<rect x="3.24805" y="13.1667" width="71.5037" height="50.8892" rx="10" fill="#FA1B5E"/>
<path d="M73.2549 21.1326C72.8688 19.5704 72.0826 18.139 70.9755 16.9831C69.8685 15.8272 68.4799 14.9876 66.9499 14.5492C61.3599 13.1667 38.9999 13.1667 38.9999 13.1667C38.9999 13.1667 16.6399 13.1667 11.0499 14.6809C9.51996 15.1193 8.13133 15.9589 7.02428 17.1148C5.91723 18.2707 5.13097 19.7021 4.7449 21.2642C3.72185 27.01 3.22142 32.8388 3.2499 38.6772C3.21344 44.5595 3.7139 50.4327 4.7449 56.2217C5.17052 57.7354 5.9744 59.1123 7.07887 60.2194C8.18334 61.3265 9.55107 62.1264 11.0499 62.5417C16.6399 64.0559 38.9999 64.0559 38.9999 64.0559C38.9999 64.0559 61.3599 64.0559 66.9499 62.5417C68.4799 62.1033 69.8685 61.2638 70.9755 60.1079C72.0826 58.9519 72.8688 57.5206 73.2549 55.9584C74.2701 50.2559 74.7705 44.4716 74.7499 38.6772C74.7864 32.7948 74.2859 26.9216 73.2549 21.1326V21.1326Z" stroke="#FA1B5E" stroke-width="2" stroke-linecap="round" stroke-linejoin="round"/>
<path d="M31.6875 49.4408L50.375 38.6771L31.6875 27.9133V49.4408Z" fill="white" stroke="white" stroke-width="2" stroke-linecap="round" stroke-linejoin="round"/>
</g>
<defs>
<clipPath id="clip0_396_4220">
<rect width="73.3499" height="70.9167" fill="white"/>
</clipPath>
</defs>
</svg>
