<svg width="109" height="81" viewBox="0 0 109 81" fill="none" xmlns="http://www.w3.org/2000/svg">
<path d="M4.10156 64.7988V70.4043H6.9043C7.28841 70.4043 7.64974 70.3327 7.98828 70.1895C8.32682 70.0397 8.62305 69.8379 8.87695 69.584C9.13086 69.3301 9.32943 69.0339 9.47266 68.6953C9.6224 68.3503 9.69727 67.9857 9.69727 67.6016C9.69727 67.2174 9.6224 66.8561 9.47266 66.5176C9.32943 66.1725 9.13086 65.873 8.87695 65.6191C8.62305 65.3652 8.32682 65.1667 7.98828 65.0234C7.64974 64.8737 7.28841 64.7988 6.9043 64.7988H4.10156ZM4.10156 76H1.29883V61.9961H6.9043C7.41862 61.9961 7.91341 62.0645 8.38867 62.2012C8.86393 62.3314 9.30664 62.5202 9.7168 62.7676C10.1335 63.0085 10.5111 63.3014 10.8496 63.6465C11.1947 63.985 11.4876 64.3626 11.7285 64.7793C11.9759 65.196 12.1647 65.6419 12.2949 66.1172C12.4316 66.5924 12.5 67.0872 12.5 67.6016C12.5 68.3698 12.3535 69.0957 12.0605 69.7793C11.7676 70.4564 11.3672 71.0488 10.8594 71.5566C10.3516 72.0645 9.75586 72.4648 9.07227 72.7578C8.39518 73.0508 7.67253 73.1973 6.9043 73.1973H4.10156V76ZM17.0417 62.6992C17.0417 62.9466 16.9929 63.1777 16.8952 63.3926C16.8041 63.6074 16.6771 63.7962 16.5144 63.959C16.3516 64.1152 16.1596 64.2422 15.9382 64.3398C15.7234 64.431 15.4922 64.4766 15.2448 64.4766C14.9974 64.4766 14.7631 64.431 14.5417 64.3398C14.3269 64.2422 14.1381 64.1152 13.9753 63.959C13.8191 63.7962 13.6921 63.6074 13.5945 63.3926C13.5033 63.1777 13.4577 62.9466 13.4577 62.6992C13.4577 62.4583 13.5033 62.2305 13.5945 62.0156C13.6921 61.7943 13.8191 61.6055 13.9753 61.4492C14.1381 61.2865 14.3269 61.1595 14.5417 61.0684C14.7631 60.9707 14.9974 60.9219 15.2448 60.9219C15.4922 60.9219 15.7234 60.9707 15.9382 61.0684C16.1596 61.1595 16.3516 61.2865 16.5144 61.4492C16.6771 61.6055 16.8041 61.7943 16.8952 62.0156C16.9929 62.2305 17.0417 62.4583 17.0417 62.6992ZM16.5827 76H13.8972V65.541H16.5827V76ZM27.7944 67.6211L25.8412 69.584C25.7436 69.3105 25.6101 69.0664 25.4409 68.8516C25.2716 68.6302 25.0795 68.4447 24.8647 68.2949C24.6564 68.1452 24.4285 68.0312 24.1811 67.9531C23.9337 67.875 23.6798 67.8359 23.4194 67.8359C23.0548 67.8359 22.7097 67.9108 22.3842 68.0605C22.0652 68.2103 21.7853 68.4219 21.5444 68.6953C21.31 68.9622 21.1245 69.2812 20.9877 69.6523C20.851 70.0234 20.7827 70.4336 20.7827 70.8828C20.7827 71.2474 20.851 71.5892 20.9877 71.9082C21.1245 72.2272 21.31 72.5072 21.5444 72.748C21.7853 72.9889 22.0652 73.1777 22.3842 73.3145C22.7097 73.4512 23.0548 73.5195 23.4194 73.5195C23.6798 73.5195 23.9304 73.4837 24.1713 73.4121C24.4122 73.3405 24.6368 73.2396 24.8452 73.1094C25.06 72.9727 25.2488 72.8099 25.4116 72.6211C25.5808 72.4258 25.7176 72.2109 25.8217 71.9766L27.7748 73.9395C27.5274 74.291 27.241 74.6068 26.9155 74.8867C26.5965 75.1667 26.2482 75.4043 25.8705 75.5996C25.4995 75.7949 25.1056 75.9414 24.6889 76.0391C24.2787 76.1432 23.8556 76.1953 23.4194 76.1953C22.6837 76.1953 21.9903 76.0586 21.3393 75.7852C20.6948 75.5052 20.1284 75.1243 19.6401 74.6426C19.1583 74.1608 18.7774 73.5977 18.4975 72.9531C18.2176 72.3086 18.0776 71.6185 18.0776 70.8828C18.0776 70.082 18.2176 69.3333 18.4975 68.6367C18.7774 67.9401 19.1583 67.3346 19.6401 66.8203C20.1284 66.2995 20.6948 65.8893 21.3393 65.5898C21.9903 65.2904 22.6837 65.1406 23.4194 65.1406C23.8556 65.1406 24.282 65.196 24.6987 65.3066C25.1218 65.4173 25.5222 65.5801 25.8998 65.7949C26.284 66.0033 26.6355 66.2604 26.9545 66.5664C27.2801 66.8724 27.56 67.224 27.7944 67.6211ZM39.1037 76H38.4591L37.424 74.5645C37.1701 74.7923 36.8999 75.0072 36.6134 75.209C36.3335 75.4043 36.0373 75.5768 35.7248 75.7266C35.4123 75.8698 35.09 75.9837 34.758 76.0684C34.4324 76.153 34.1004 76.1953 33.7619 76.1953C33.0262 76.1953 32.3328 76.0716 31.6818 75.8242C31.0373 75.5768 30.4709 75.2188 29.9826 74.75C29.5008 74.2747 29.1199 73.6953 28.84 73.0117C28.5601 72.3281 28.4201 71.5501 28.4201 70.6777C28.4201 69.8639 28.5601 69.1185 28.84 68.4414C29.1199 67.7578 29.5008 67.1719 29.9826 66.6836C30.4709 66.1953 31.0373 65.8177 31.6818 65.5508C32.3328 65.2773 33.0262 65.1406 33.7619 65.1406C34.1004 65.1406 34.4357 65.1829 34.7677 65.2676C35.0998 65.3522 35.422 65.4694 35.7345 65.6191C36.047 65.7689 36.3433 65.9447 36.6232 66.1465C36.9097 66.3483 37.1766 66.5664 37.424 66.8008L38.4591 65.5605H39.1037V76ZM36.4181 70.6777C36.4181 70.3132 36.3465 69.9616 36.2033 69.623C36.0666 69.278 35.8778 68.9753 35.6369 68.7148C35.396 68.4479 35.1128 68.2363 34.7873 68.0801C34.4683 67.9173 34.1265 67.8359 33.7619 67.8359C33.3973 67.8359 33.0522 67.8978 32.7267 68.0215C32.4077 68.1452 32.1278 68.3275 31.8869 68.5684C31.6525 68.8092 31.467 69.1087 31.3302 69.4668C31.1935 69.8184 31.1252 70.222 31.1252 70.6777C31.1252 71.1335 31.1935 71.5404 31.3302 71.8984C31.467 72.25 31.6525 72.5462 31.8869 72.7871C32.1278 73.028 32.4077 73.2103 32.7267 73.334C33.0522 73.4577 33.3973 73.5195 33.7619 73.5195C34.1265 73.5195 34.4683 73.4414 34.7873 73.2852C35.1128 73.1224 35.396 72.9108 35.6369 72.6504C35.8778 72.3835 36.0666 72.0807 36.2033 71.7422C36.3465 71.3971 36.4181 71.0423 36.4181 70.6777ZM48.6161 70.6777C48.6161 70.3132 48.5445 69.9616 48.4012 69.623C48.2645 69.278 48.0757 68.9753 47.8348 68.7148C47.594 68.4479 47.3108 68.2363 46.9852 68.0801C46.6662 67.9173 46.3244 67.8359 45.9598 67.8359C45.5953 67.8359 45.2502 67.8978 44.9247 68.0215C44.6057 68.1452 44.3257 68.3275 44.0848 68.5684C43.8505 68.8092 43.6649 69.1087 43.5282 69.4668C43.3915 69.8184 43.3231 70.222 43.3231 70.6777C43.3231 71.1139 43.3915 71.5078 43.5282 71.8594C43.6649 72.2044 43.8505 72.5007 44.0848 72.748C44.3257 72.9954 44.6057 73.1875 44.9247 73.3242C45.2502 73.4544 45.5953 73.5195 45.9598 73.5195C46.3244 73.5195 46.6662 73.4414 46.9852 73.2852C47.3108 73.1224 47.594 72.9108 47.8348 72.6504C48.0757 72.3835 48.2645 72.0807 48.4012 71.7422C48.5445 71.3971 48.6161 71.0423 48.6161 70.6777ZM51.3016 74.6816C51.3016 75.4173 51.1617 76.1074 50.8817 76.752C50.6018 77.3965 50.2177 77.9596 49.7294 78.4414C49.2476 78.9232 48.6812 79.304 48.0302 79.584C47.3856 79.8639 46.6955 80.0039 45.9598 80.0039L44.622 79.9844V77.3184L45.9403 77.3379C46.357 77.3379 46.7118 77.2826 47.0048 77.1719C47.2977 77.0677 47.5451 76.9212 47.747 76.7324C47.9488 76.5501 48.1083 76.3385 48.2255 76.0977C48.3492 75.8568 48.4468 75.6029 48.5184 75.3359C48.4143 75.5052 48.2645 75.6452 48.0692 75.7559C47.8739 75.86 47.6558 75.9447 47.4149 76.0098C47.1805 76.0814 46.9331 76.1302 46.6727 76.1562C46.4188 76.1823 46.1812 76.1953 45.9598 76.1953C45.2242 76.1953 44.5308 76.0684 43.8798 75.8145C43.2352 75.5605 42.6688 75.1992 42.1805 74.7305C41.6988 74.2552 41.3179 73.6758 41.038 72.9922C40.758 72.3086 40.618 71.5371 40.618 70.6777C40.618 69.89 40.758 69.1576 41.038 68.4805C41.3179 67.8034 41.6988 67.2174 42.1805 66.7227C42.6688 66.2279 43.2352 65.8405 43.8798 65.5605C44.5308 65.2806 45.2242 65.1406 45.9598 65.1406C46.2984 65.1406 46.6337 65.1829 46.9657 65.2676C47.2977 65.3522 47.62 65.4694 47.9325 65.6191C48.245 65.7689 48.5412 65.9447 48.8212 66.1465C49.1076 66.3483 49.3746 66.5664 49.622 66.8008L50.6571 65.5605H51.3016V74.6816ZM56.5172 62.6992C56.5172 62.9466 56.4684 63.1777 56.3707 63.3926C56.2796 63.6074 56.1526 63.7962 55.9898 63.959C55.8271 64.1152 55.635 64.2422 55.4137 64.3398C55.1988 64.431 54.9677 64.4766 54.7203 64.4766C54.4729 64.4766 54.2385 64.431 54.0172 64.3398C53.8023 64.2422 53.6135 64.1152 53.4508 63.959C53.2945 63.7962 53.1676 63.6074 53.0699 63.3926C52.9788 63.1777 52.9332 62.9466 52.9332 62.6992C52.9332 62.4583 52.9788 62.2305 53.0699 62.0156C53.1676 61.7943 53.2945 61.6055 53.4508 61.4492C53.6135 61.2865 53.8023 61.1595 54.0172 61.0684C54.2385 60.9707 54.4729 60.9219 54.7203 60.9219C54.9677 60.9219 55.1988 60.9707 55.4137 61.0684C55.635 61.1595 55.8271 61.2865 55.9898 61.4492C56.1526 61.6055 56.2796 61.7943 56.3707 62.0156C56.4684 62.2305 56.5172 62.4583 56.5172 62.6992ZM56.0582 76H53.3727V65.541H56.0582V76ZM69.555 74.584C68.904 75.1374 68.178 75.5638 67.3773 75.8633C66.5765 76.1562 65.7432 76.3027 64.8773 76.3027C64.2132 76.3027 63.5719 76.2148 62.9534 76.0391C62.3415 75.8698 61.7685 75.6289 61.2347 75.3164C60.7008 74.9974 60.2126 74.6198 59.7698 74.1836C59.3271 73.7409 58.9495 73.2526 58.637 72.7188C58.3245 72.1784 58.0804 71.599 57.9046 70.9805C57.7353 70.362 57.6507 69.7207 57.6507 69.0566C57.6507 68.3926 57.7353 67.7546 57.9046 67.1426C58.0804 66.5306 58.3245 65.9577 58.637 65.4238C58.9495 64.8835 59.3271 64.3952 59.7698 63.959C60.2126 63.5163 60.7008 63.1387 61.2347 62.8262C61.7685 62.5137 62.3415 62.2728 62.9534 62.1035C63.5719 61.9277 64.2132 61.8398 64.8773 61.8398C65.7432 61.8398 66.5765 61.9896 67.3773 62.2891C68.178 62.582 68.904 63.0052 69.555 63.5586L68.0902 66C67.667 65.5703 67.1787 65.235 66.6253 64.9941C66.0719 64.7467 65.4892 64.623 64.8773 64.623C64.2653 64.623 63.6891 64.7402 63.1488 64.9746C62.6149 65.209 62.1461 65.528 61.7425 65.9316C61.3389 66.3288 61.0198 66.7975 60.7855 67.3379C60.5511 67.8717 60.4339 68.4447 60.4339 69.0566C60.4339 69.6751 60.5511 70.2546 60.7855 70.7949C61.0198 71.3353 61.3389 71.8073 61.7425 72.2109C62.1461 72.6146 62.6149 72.9336 63.1488 73.168C63.6891 73.4023 64.2653 73.5195 64.8773 73.5195C65.2288 73.5195 65.5706 73.4772 65.9027 73.3926C66.2347 73.3079 66.5504 73.1908 66.8499 73.041V69.0566H69.555V74.584ZM81.587 76H80.9424L79.9073 74.5645C79.6534 74.7923 79.3832 75.0072 79.0967 75.209C78.8168 75.4043 78.5205 75.5768 78.208 75.7266C77.8955 75.8698 77.5733 75.9837 77.2412 76.0684C76.9157 76.153 76.5837 76.1953 76.2452 76.1953C75.5095 76.1953 74.8161 76.0716 74.1651 75.8242C73.5205 75.5768 72.9541 75.2188 72.4659 74.75C71.9841 74.2747 71.6032 73.6953 71.3233 73.0117C71.0433 72.3281 70.9034 71.5501 70.9034 70.6777C70.9034 69.8639 71.0433 69.1185 71.3233 68.4414C71.6032 67.7578 71.9841 67.1719 72.4659 66.6836C72.9541 66.1953 73.5205 65.8177 74.1651 65.5508C74.8161 65.2773 75.5095 65.1406 76.2452 65.1406C76.5837 65.1406 76.919 65.1829 77.251 65.2676C77.583 65.3522 77.9053 65.4694 78.2178 65.6191C78.5303 65.7689 78.8265 65.9447 79.1065 66.1465C79.3929 66.3483 79.6599 66.5664 79.9073 66.8008L80.9424 65.5605H81.587V76ZM78.9014 70.6777C78.9014 70.3132 78.8298 69.9616 78.6866 69.623C78.5498 69.278 78.361 68.9753 78.1202 68.7148C77.8793 68.4479 77.5961 68.2363 77.2705 68.0801C76.9515 67.9173 76.6097 67.8359 76.2452 67.8359C75.8806 67.8359 75.5355 67.8978 75.21 68.0215C74.891 68.1452 74.611 68.3275 74.3702 68.5684C74.1358 68.8092 73.9502 69.1087 73.8135 69.4668C73.6768 69.8184 73.6084 70.222 73.6084 70.6777C73.6084 71.1335 73.6768 71.5404 73.8135 71.8984C73.9502 72.25 74.1358 72.5462 74.3702 72.7871C74.611 73.028 74.891 73.2103 75.21 73.334C75.5355 73.4577 75.8806 73.5195 76.2452 73.5195C76.6097 73.5195 76.9515 73.4414 77.2705 73.2852C77.5961 73.1224 77.8793 72.9108 78.1202 72.6504C78.361 72.3835 78.5498 72.0807 78.6866 71.7422C78.8298 71.3971 78.9014 71.0423 78.9014 70.6777ZM96.9587 76H94.3025V69.3594C94.3025 69.1771 94.2667 69.0046 94.1951 68.8418C94.13 68.679 94.0356 68.5358 93.9119 68.4121C93.7882 68.2884 93.6449 68.194 93.4822 68.1289C93.3194 68.0573 93.1469 68.0215 92.9646 68.0215C92.7823 68.0215 92.6098 68.0573 92.447 68.1289C92.2908 68.194 92.1508 68.2884 92.0271 68.4121C91.9099 68.5358 91.8155 68.679 91.7439 68.8418C91.6788 69.0046 91.6462 69.1771 91.6462 69.3594V76H88.9802V69.3594C88.9802 69.1771 88.9444 69.0046 88.8728 68.8418C88.8077 68.679 88.7133 68.5358 88.5896 68.4121C88.4659 68.2884 88.3227 68.194 88.1599 68.1289C87.9972 68.0573 87.8246 68.0215 87.6423 68.0215C87.46 68.0215 87.2875 68.0573 87.1248 68.1289C86.9685 68.194 86.8285 68.2884 86.7048 68.4121C86.5877 68.5358 86.4933 68.679 86.4216 68.8418C86.3565 69.0046 86.324 69.1771 86.324 69.3594V76H83.658V65.541H84.3025L85.0252 66.3418C85.3962 66.0293 85.8031 65.7884 86.2459 65.6191C86.6951 65.4434 87.1606 65.3555 87.6423 65.3555C88.1306 65.3555 88.6059 65.4466 89.0681 65.6289C89.5369 65.8112 89.947 66.127 90.2986 66.5762C90.4614 66.3548 90.6469 66.166 90.8552 66.0098C91.0636 65.8535 91.2817 65.7266 91.5095 65.6289C91.7439 65.5312 91.9848 65.4629 92.2322 65.4238C92.4796 65.3783 92.7237 65.3555 92.9646 65.3555C93.518 65.3555 94.0356 65.4596 94.5173 65.668C95.0056 65.8763 95.4288 66.1628 95.7869 66.5273C96.1515 66.8854 96.4379 67.3086 96.6462 67.7969C96.8546 68.2852 96.9587 68.806 96.9587 69.3594V76ZM103.102 73.4414C103.206 73.474 103.31 73.4967 103.415 73.5098C103.519 73.5163 103.623 73.5195 103.727 73.5195C103.987 73.5195 104.238 73.4837 104.479 73.4121C104.72 73.3405 104.944 73.2396 105.153 73.1094C105.368 72.9727 105.556 72.8099 105.719 72.6211C105.888 72.4258 106.025 72.2109 106.129 71.9766L108.082 73.9395C107.835 74.291 107.549 74.6068 107.223 74.8867C106.904 75.1667 106.556 75.4043 106.178 75.5996C105.807 75.7949 105.413 75.9414 104.997 76.0391C104.586 76.1432 104.163 76.1953 103.727 76.1953C102.991 76.1953 102.298 76.0586 101.647 75.7852C101.002 75.5117 100.436 75.1309 99.9477 74.6426C99.466 74.1543 99.0851 73.5749 98.8052 72.9043C98.5252 72.2272 98.3852 71.485 98.3852 70.6777C98.3852 69.8509 98.5252 69.0957 98.8052 68.4121C99.0851 67.7285 99.466 67.1458 99.9477 66.6641C100.436 66.1823 101.002 65.8079 101.647 65.541C102.298 65.2741 102.991 65.1406 103.727 65.1406C104.163 65.1406 104.59 65.1927 105.006 65.2969C105.423 65.401 105.817 65.5508 106.188 65.7461C106.566 65.9414 106.917 66.1823 107.243 66.4688C107.568 66.7487 107.855 67.0645 108.102 67.416L103.102 73.4414ZM104.469 67.9434C104.346 67.8978 104.222 67.8685 104.098 67.8555C103.981 67.8424 103.857 67.8359 103.727 67.8359C103.362 67.8359 103.017 67.9043 102.692 68.041C102.373 68.1712 102.093 68.36 101.852 68.6074C101.618 68.8548 101.432 69.1543 101.295 69.5059C101.159 69.8509 101.09 70.2415 101.09 70.6777C101.09 70.7754 101.094 70.8861 101.1 71.0098C101.113 71.1335 101.129 71.2604 101.149 71.3906C101.175 71.5143 101.204 71.6348 101.237 71.752C101.269 71.8691 101.312 71.9733 101.364 72.0645L104.469 67.9434Z" fill="white"/>
<path d="M40.4598 40.0416C38.4577 40.0416 36.7476 39.3242 35.3295 37.8894C33.9113 36.4546 33.1689 34.7194 33.1022 32.684C33.1022 32.3837 33.1189 32.0834 33.1522 31.783C33.1856 31.4827 33.2356 31.1824 33.3024 30.8821L37.5068 14.0646C37.9739 12.2627 38.9249 10.8029 40.3597 9.68505C41.7946 8.56722 43.4296 8.0083 45.2648 8.0083H64.7851C66.6204 8.0083 68.2554 8.56722 69.6903 9.68505C71.1251 10.8029 72.0761 12.2627 72.5432 14.0646L76.7476 30.8821C76.8143 31.1824 76.8727 31.4911 76.9228 31.8081C76.9728 32.1251 76.9979 32.4337 76.9979 32.734C76.9979 34.7695 76.2721 36.4963 74.8206 37.9144C73.3691 39.3326 71.6256 40.0416 69.5901 40.0416C68.1887 40.0416 66.8873 39.6746 65.6861 38.9405C64.4848 38.2064 63.5839 37.2054 62.9833 35.9374L61.5818 33.0343C61.415 32.7007 61.1647 32.4504 60.831 32.2836C60.4973 32.1167 60.147 32.0333 59.7799 32.0333H50.27C49.903 32.0333 49.5526 32.1167 49.2189 32.2836C48.8853 32.4504 48.635 32.7007 48.4682 33.0343L47.0667 35.9374C46.4661 37.2054 45.5651 38.2064 44.3639 38.9405C43.1626 39.6746 41.8613 40.0416 40.4598 40.0416ZM40.61 36.0375C41.244 36.0375 41.8196 35.8706 42.3368 35.5369C42.854 35.2033 43.2461 34.7528 43.513 34.1855L44.9145 31.3326C45.415 30.2982 46.1491 29.489 47.1168 28.905C48.0844 28.3211 49.1355 28.0291 50.27 28.0291H59.7799C60.9144 28.0291 61.9655 28.3294 62.9332 28.9301C63.9009 29.5307 64.6517 30.3315 65.1856 31.3326L66.587 34.1855C66.854 34.7528 67.246 35.2033 67.7632 35.5369C68.2804 35.8706 68.856 36.0375 69.49 36.0375C70.4243 36.0375 71.2252 35.7288 71.8925 35.1115C72.5599 34.4942 72.9103 33.7184 72.9436 32.7841C72.9436 32.8175 72.9103 32.5005 72.8435 31.8331L68.6392 15.0656C68.4056 14.1647 67.9384 13.4306 67.2377 12.8634C66.537 12.2961 65.7195 12.0125 64.7851 12.0125H45.2648C44.3305 12.0125 43.5047 12.2961 42.7873 12.8634C42.0698 13.4306 41.611 14.1647 41.4108 15.0656L37.2064 31.8331C37.1397 32.0333 37.1063 32.3336 37.1063 32.734C37.1063 33.6683 37.4484 34.4525 38.1324 35.0865C38.8165 35.7205 39.6423 36.0375 40.61 36.0375ZM58.0281 22.0229C58.5954 22.0229 59.0709 21.831 59.4546 21.4473C59.8383 21.0636 60.0302 20.5881 60.0302 20.0208C60.0302 19.4535 59.8383 18.978 59.4546 18.5943C59.0709 18.2106 58.5954 18.0187 58.0281 18.0187C57.4609 18.0187 56.9854 18.2106 56.6016 18.5943C56.2179 18.978 56.026 19.4535 56.026 20.0208C56.026 20.5881 56.2179 21.0636 56.6016 21.4473C56.9854 21.831 57.4609 22.0229 58.0281 22.0229ZM62.0323 18.0187C62.5995 18.0187 63.075 17.8269 63.4588 17.4431C63.8425 17.0594 64.0344 16.5839 64.0344 16.0166C64.0344 15.4494 63.8425 14.9739 63.4588 14.5901C63.075 14.2064 62.5995 14.0146 62.0323 14.0146C61.465 14.0146 60.9895 14.2064 60.6058 14.5901C60.2221 14.9739 60.0302 15.4494 60.0302 16.0166C60.0302 16.5839 60.2221 17.0594 60.6058 17.4431C60.9895 17.8269 61.465 18.0187 62.0323 18.0187ZM62.0323 26.0271C62.5995 26.0271 63.075 25.8352 63.4588 25.4515C63.8425 25.0677 64.0344 24.5922 64.0344 24.025C64.0344 23.4577 63.8425 22.9822 63.4588 22.5985C63.075 22.2148 62.5995 22.0229 62.0323 22.0229C61.465 22.0229 60.9895 22.2148 60.6058 22.5985C60.2221 22.9822 60.0302 23.4577 60.0302 24.025C60.0302 24.5922 60.2221 25.0677 60.6058 25.4515C60.9895 25.8352 61.465 26.0271 62.0323 26.0271ZM66.0364 22.0229C66.6037 22.0229 67.0792 21.831 67.4629 21.4473C67.8467 21.0636 68.0385 20.5881 68.0385 20.0208C68.0385 19.4535 67.8467 18.978 67.4629 18.5943C67.0792 18.2106 66.6037 18.0187 66.0364 18.0187C65.4692 18.0187 64.9937 18.2106 64.61 18.5943C64.2262 18.978 64.0344 19.4535 64.0344 20.0208C64.0344 20.5881 64.2262 21.0636 64.61 21.4473C64.9937 21.831 65.4692 22.0229 66.0364 22.0229ZM48.0177 25.026C48.4515 25.026 48.8102 24.8842 49.0938 24.6006C49.3774 24.3169 49.5193 23.9582 49.5193 23.5244V21.5224H51.5213C51.9551 21.5224 52.3138 21.3805 52.5975 21.0969C52.8811 20.8133 53.0229 20.4546 53.0229 20.0208C53.0229 19.587 52.8811 19.2283 52.5975 18.9447C52.3138 18.6611 51.9551 18.5192 51.5213 18.5192H49.5193V16.5172C49.5193 16.0834 49.3774 15.7247 49.0938 15.441C48.8102 15.1574 48.4515 15.0156 48.0177 15.0156C47.5839 15.0156 47.2252 15.1574 46.9416 15.441C46.6579 15.7247 46.5161 16.0834 46.5161 16.5172V18.5192H44.514C44.0803 18.5192 43.7216 18.6611 43.4379 18.9447C43.1543 19.2283 43.0125 19.587 43.0125 20.0208C43.0125 20.4546 43.1543 20.8133 43.4379 21.0969C43.7216 21.3805 44.0803 21.5224 44.514 21.5224H46.5161V23.5244C46.5161 23.9582 46.6579 24.3169 46.9416 24.6006C47.2252 24.8842 47.5839 25.026 48.0177 25.026Z" fill="#E8EAED"/>
</svg>
