<svg width="49" height="49" viewBox="0 0 49 49" fill="none" xmlns="http://www.w3.org/2000/svg">
<g clip-path="url(#clip0_533_2190)">
<g clip-path="url(#clip1_533_2190)">
<mask id="mask0_533_2190" style="mask-type:luminance" maskUnits="userSpaceOnUse" x="0" y="0" width="49" height="49">
<path d="M48.0765 24.0297C48.0765 10.7836 37.3384 0.0454102 24.0922 0.0454102C10.846 0.0454102 0.10788 10.7836 0.10788 24.0297C0.10788 37.2759 10.846 48.014 24.0922 48.014C37.3384 48.014 48.0765 37.2759 48.0765 24.0297Z" fill="white"/>
</mask>
<g mask="url(#mask0_533_2190)">
<path d="M48.0765 24.0297C48.0765 10.7836 37.3384 0.0454102 24.0922 0.0454102C10.846 0.0454102 0.10788 10.7836 0.10788 24.0297C0.10788 37.2759 10.846 48.014 24.0922 48.014C37.3384 48.014 48.0765 37.2759 48.0765 24.0297Z" fill="#63E296"/>
<path d="M14.0348 29.0723L34.3739 33.6612C41.6953 35.3142 44.1341 38.8434 44.4371 40.4003C45.2286 45.313 47.2119 56.5407 48.822 62.1401C50.432 67.7398 48.2637 71.1617 46.3593 71.5461L40.4562 71.929L38.1867 63.0688L34.4847 52.6002L31.1403 71.3392L20.4485 62.496L3.77462 59.6543L6.49135 46.7622C1.78928 49.0428 -4.81172 53.7454 -7.4996 54.7412C-13.4767 56.9476 -17.8879 53.135 -18.6951 50.5697L-25.4387 30.8895L-18.0594 27.5391L-10.5482 43.072C-6.61401 39.92 -1.05667 35.5663 1.81835 33.4828C8.16132 27.6979 12.2282 28.6727 14.0348 29.0723Z" fill="#FF85D2"/>
<path d="M11.7441 49.7399C12.0615 50.1026 12.4365 50.7876 11.3979 50.6577C10.103 50.4947 11.0204 48.4696 12.0438 48.9453C13.0671 49.4212 13.9961 51.4531 11.1214 51.3905C8.24669 51.3282 9.78919 47.4934 11.6202 47.9481" stroke="black" stroke-width="0.5" stroke-linecap="round"/>
<path d="M-1.01754 45.6903C-0.70011 46.053 -0.325074 46.7378 -1.36369 46.6079C-2.65864 46.4451 -1.74115 44.4198 -0.717816 44.8957C0.305521 45.3714 1.23664 47.3977 -1.64019 47.3409C-4.51491 47.2786 -2.97241 43.4438 -1.14137 43.8982" stroke="black" stroke-width="0.5" stroke-linecap="round"/>
<path d="M29.6053 40.995C29.9226 41.3577 30.2978 42.0427 29.2613 41.907C27.9663 41.7442 28.8839 39.7189 29.9072 40.1948C30.9283 40.6763 31.8593 42.7026 28.9848 42.64C26.1156 42.5799 27.6524 38.7429 29.4837 39.1976" stroke="black" stroke-width="0.5" stroke-linecap="round"/>
<path d="M7.16503 32.7936C7.48245 33.1563 7.85748 33.8413 6.82097 33.7056C5.52604 33.5428 6.4435 31.5175 7.46685 31.9934C8.48807 32.4746 9.4192 34.5009 6.54448 34.4386C3.66974 34.3763 5.21226 30.5413 7.04328 30.9959" stroke="black" stroke-width="0.5" stroke-linecap="round"/>
<path d="M7.49132 42.2139L6.61826 46.0786" stroke="black" stroke-width="0.5" stroke-linecap="round"/>
<path d="M35.5481 47.7632L34.675 51.6279" stroke="black" stroke-width="0.5" stroke-linecap="round"/>
<path d="M31.3047 18.2273C31.3803 22.8286 28.766 27.7628 25.0452 27.7256C22.5681 27.6976 20.059 24.5816 18.4837 21.652C17.4715 20.2143 16.9217 19.0601 16.9378 17.8127C16.9757 14.0473 20.0195 11.0276 23.7346 11.0628C27.4518 11.0924 31.2364 14.2684 31.3047 18.2273Z" fill="black"/>
<path d="M18.1534 21.1022L17.4264 19.7907C18.3416 19.5162 20.405 16.0739 20.5704 14.6841C21.0061 16.1413 23.4638 19.1374 28.0417 20.8494L27.1154 22.2906C28.442 21.212 30.1694 21.9549 30.2049 23.2863C30.1032 25.5768 28.2551 25.3576 27.4387 24.793L27.2714 31.8571L30.2894 32.5506C30.0004 33.3179 26.9244 36.3262 22.9477 35.5133C18.2667 34.4146 17.0201 30.7826 16.7165 29.4329L20.71 30.2521L20.6942 27.9684C19.8544 27.9581 18.0892 28.0455 17.3652 26.5559C16.6183 25.0258 17.4283 22.3827 18.1534 21.1022Z" fill="#6983FF"/>
<path d="M20.7153 29.6277L23.797 27.6968C23.797 27.6968 22.8367 27.852 22.221 27.9071C21.6243 27.9631 20.6978 27.9776 20.6978 27.9776L20.7153 29.6277Z" fill="black"/>
<path d="M20.8152 19.4883C20.5595 20.7507 21.5162 21.4987 21.5162 21.4987L20.3499 23.5248L21.7026 23.5383" stroke="black" stroke-width="0.5" stroke-linecap="round"/>
<path d="M23.1208 19.0797C23.6204 18.9982 24.1222 19.0129 24.4707 19.1104" stroke="black" stroke-width="0.5" stroke-linecap="round"/>
<path d="M18.5962 19.1993C19.0958 19.1179 19.5976 19.1325 19.946 19.23" stroke="black" stroke-width="0.5" stroke-linecap="round"/>
<path d="M21.8012 25.5608C22.2442 25.3315 22.6357 25.0185 22.8581 24.731" stroke="black" stroke-width="0.5" stroke-linecap="round"/>
<path d="M27.2545 23.7033L28.9003 22.3726" stroke="black" stroke-width="0.5" stroke-linecap="round"/>
<path d="M28.4253 22.7764L29.2427 23.5513" stroke="black" stroke-width="0.5" stroke-linecap="round"/>
<path d="M23.8622 21.3983C24.0258 21.4009 24.1605 21.2704 24.1629 21.1069C24.1655 20.9434 24.0349 20.8087 23.8713 20.8062C23.7078 20.8036 23.5732 20.9341 23.5707 21.0976C23.5681 21.2611 23.6986 21.3958 23.8622 21.3983Z" fill="black"/>
<path d="M19.3402 21.5106C19.5037 21.5132 19.6384 21.3827 19.6409 21.2192C19.6434 21.0557 19.5129 20.9211 19.3493 20.9185C19.1858 20.9159 19.0512 21.0464 19.0486 21.2099C19.0461 21.3734 19.1766 21.5081 19.3402 21.5106Z" fill="black"/>
<path d="M33.7033 14.7013C35.6683 13.3382 36.3311 10.8826 35.1837 9.21665C34.0361 7.55069 31.5128 7.30517 29.5479 8.66827C27.5829 10.0314 26.9201 12.4869 28.0677 14.1529C29.2151 15.8188 31.7384 16.0644 33.7033 14.7013Z" fill="black"/>
<path d="M24.6272 53.0264L31.846 68.4144L29.3269 82.7022C29.0934 83.9515 28.4598 86.4001 27.5865 87.0233C25.7398 88.552 24.3176 88.3079 24.0268 88.1978L22.9221 100.781L8.27025 99.1387L9.13179 84.2811L6.13461 80.8355L4.52372 98.2965L-10.7527 97.058C-10.3514 85.4958 -8.71552 58.1353 -7.01484 52.5956C-3.16005 43.5376 3.03043 45.6955 5.64215 47.9067L11.9688 56.0373C16.3566 46.5476 22.534 49.4366 24.6272 53.0264Z" fill="black" stroke="black" stroke-width="0.5"/>
</g>
</g>
</g>
<defs>
<clipPath id="clip0_533_2190">
<rect width="48.2915" height="48.05" fill="white" transform="translate(0 0.0498047)"/>
</clipPath>
<clipPath id="clip1_533_2190">
<rect width="48.2915" height="48.05" fill="white"/>
</clipPath>
</defs>
</svg>
