<?xml version="1.0" encoding="UTF-8"?>
<svg id="Capa_2" data-name="Capa 2" xmlns="http://www.w3.org/2000/svg" viewBox="0 0 43.23 36.5">
  <defs>
    <style>
      .cls-1 {
        fill: #02187e;
        stroke: #02187e;
        stroke-miterlimit: 10;
      }

      .cls-2 {
        fill: #f39e46;
        stroke: #fff;
        stroke-width: 4px;
      }
    </style>
  </defs>
  <g id="Capa_1-2" data-name="Capa 1">
    <g>
      <g>
        <path class="cls-1" d="M8.73,6h30c2.21,0,4,1.79,4,4h0c0,2.21-1.79,4-4,4H8.73c-2.21,0-4-1.79-4-4h0c0-2.21,1.79-4,4-4Z"/>
        <path class="cls-1" d="M8.73,17h30c2.21,0,4,1.79,4,4h0c0,2.21-1.79,4-4,4H8.73c-2.21,0-4-1.79-4-4h0c0-2.21,1.79-4,4-4Z"/>
        <path class="cls-1" d="M8.73,28h30c2.21,0,4,1.79,4,4h0c0,2.21-1.79,4-4,4H8.73c-2.21,0-4-1.79-4-4h0c0-2.21,1.79-4,4-4Z"/>
      </g>
      <g>
        <path class="cls-2" d="M6,2h30c2.21,0,4,1.79,4,4h0c0,2.21-1.79,4-4,4H6c-2.21,0-4-1.79-4-4h0c0-2.21,1.79-4,4-4Z"/>
        <path class="cls-2" d="M6,13h30c2.21,0,4,1.79,4,4h0c0,2.21-1.79,4-4,4H6c-2.21,0-4-1.79-4-4h0c0-2.21,1.79-4,4-4Z"/>
        <path class="cls-2" d="M6,24h30c2.21,0,4,1.79,4,4h0c0,2.21-1.79,4-4,4H6c-2.21,0-4-1.79-4-4h0c0-2.21,1.79-4,4-4Z"/>
      </g>
    </g>
  </g>
</svg>