<svg width="44" height="33" viewBox="0 0 44 33" fill="none" xmlns="http://www.w3.org/2000/svg">
<path d="M7.45983 32.0416C5.45775 32.0416 3.74763 31.3242 2.32949 29.8894C0.911348 28.4546 0.168909 26.7194 0.102173 24.684C0.102173 24.3837 0.118857 24.0834 0.152225 23.783C0.185593 23.4827 0.235645 23.1824 0.302381 22.8821L4.50676 6.0646C4.97391 4.26273 5.9249 2.80288 7.35973 1.68505C8.79455 0.567216 10.4296 0.00830078 12.2648 0.00830078H31.7851C33.6204 0.00830078 35.2554 0.567216 36.6903 1.68505C38.1251 2.80288 39.0761 4.26273 39.5432 6.0646L43.7476 22.8821C43.8143 23.1824 43.8727 23.4911 43.9228 23.8081C43.9728 24.1251 43.9979 24.4337 43.9979 24.734C43.9979 26.7695 43.2721 28.4963 41.8206 29.9144C40.3691 31.3326 38.6256 32.0416 36.5901 32.0416C35.1887 32.0416 33.8873 31.6746 32.6861 30.9405C31.4848 30.2064 30.5839 29.2054 29.9833 27.9374L28.5818 25.0343C28.415 24.7007 28.1647 24.4504 27.831 24.2836C27.4973 24.1167 27.147 24.0333 26.7799 24.0333H17.27C16.903 24.0333 16.5526 24.1167 16.2189 24.2836C15.8853 24.4504 15.635 24.7007 15.4682 25.0343L14.0667 27.9374C13.4661 29.2054 12.5651 30.2064 11.3639 30.9405C10.1626 31.6746 8.86129 32.0416 7.45983 32.0416ZM7.60999 28.0375C8.24398 28.0375 8.81958 27.8706 9.33678 27.5369C9.85399 27.2033 10.2461 26.7528 10.513 26.1855L11.9145 23.3326C12.415 22.2982 13.1491 21.489 14.1168 20.905C15.0844 20.3211 16.1355 20.0291 17.27 20.0291H26.7799C27.9144 20.0291 28.9655 20.3294 29.9332 20.9301C30.9009 21.5307 31.6517 22.3315 32.1856 23.3326L33.587 26.1855C33.854 26.7528 34.246 27.2033 34.7632 27.5369C35.2804 27.8706 35.856 28.0375 36.49 28.0375C37.4243 28.0375 38.2252 27.7288 38.8925 27.1115C39.5599 26.4942 39.9103 25.7184 39.9436 24.7841C39.9436 24.8175 39.9103 24.5005 39.8435 23.8331L35.6392 7.06564C35.4056 6.16471 34.9384 5.43061 34.2377 4.86335C33.537 4.2961 32.7195 4.01247 31.7851 4.01247H12.2648C11.3305 4.01247 10.5047 4.2961 9.78725 4.86335C9.06984 5.43061 8.61103 6.16471 8.41082 7.06564L4.20644 23.8331C4.13971 24.0333 4.10634 24.3336 4.10634 24.734C4.10634 25.6683 4.44836 26.4525 5.13241 27.0865C5.81645 27.7205 6.64231 28.0375 7.60999 28.0375ZM25.0281 14.0229C25.5954 14.0229 26.0709 13.831 26.4546 13.4473C26.8383 13.0636 27.0302 12.5881 27.0302 12.0208C27.0302 11.4535 26.8383 10.978 26.4546 10.5943C26.0709 10.2106 25.5954 10.0187 25.0281 10.0187C24.4609 10.0187 23.9854 10.2106 23.6016 10.5943C23.2179 10.978 23.026 11.4535 23.026 12.0208C23.026 12.5881 23.2179 13.0636 23.6016 13.4473C23.9854 13.831 24.4609 14.0229 25.0281 14.0229ZM29.0323 10.0187C29.5995 10.0187 30.075 9.82685 30.4588 9.44312C30.8425 9.05939 31.0344 8.58389 31.0344 8.01663C31.0344 7.44938 30.8425 6.97388 30.4588 6.59015C30.075 6.20642 29.5995 6.01455 29.0323 6.01455C28.465 6.01455 27.9895 6.20642 27.6058 6.59015C27.2221 6.97388 27.0302 7.44938 27.0302 8.01663C27.0302 8.58389 27.2221 9.05939 27.6058 9.44312C27.9895 9.82685 28.465 10.0187 29.0323 10.0187ZM29.0323 18.0271C29.5995 18.0271 30.075 17.8352 30.4588 17.4515C30.8425 17.0677 31.0344 16.5922 31.0344 16.025C31.0344 15.4577 30.8425 14.9822 30.4588 14.5985C30.075 14.2148 29.5995 14.0229 29.0323 14.0229C28.465 14.0229 27.9895 14.2148 27.6058 14.5985C27.2221 14.9822 27.0302 15.4577 27.0302 16.025C27.0302 16.5922 27.2221 17.0677 27.6058 17.4515C27.9895 17.8352 28.465 18.0271 29.0323 18.0271ZM33.0364 14.0229C33.6037 14.0229 34.0792 13.831 34.4629 13.4473C34.8467 13.0636 35.0385 12.5881 35.0385 12.0208C35.0385 11.4535 34.8467 10.978 34.4629 10.5943C34.0792 10.2106 33.6037 10.0187 33.0364 10.0187C32.4692 10.0187 31.9937 10.2106 31.61 10.5943C31.2262 10.978 31.0344 11.4535 31.0344 12.0208C31.0344 12.5881 31.2262 13.0636 31.61 13.4473C31.9937 13.831 32.4692 14.0229 33.0364 14.0229ZM15.0177 17.026C15.4515 17.026 15.8102 16.8842 16.0938 16.6006C16.3774 16.3169 16.5193 15.9582 16.5193 15.5244V13.5224H18.5213C18.9551 13.5224 19.3138 13.3805 19.5975 13.0969C19.8811 12.8133 20.0229 12.4546 20.0229 12.0208C20.0229 11.587 19.8811 11.2283 19.5975 10.9447C19.3138 10.6611 18.9551 10.5192 18.5213 10.5192H16.5193V8.51715C16.5193 8.08337 16.3774 7.72466 16.0938 7.44104C15.8102 7.15741 15.4515 7.01559 15.0177 7.01559C14.5839 7.01559 14.2252 7.15741 13.9416 7.44104C13.6579 7.72466 13.5161 8.08337 13.5161 8.51715V10.5192H11.514C11.0803 10.5192 10.7216 10.6611 10.4379 10.9447C10.1543 11.2283 10.0125 11.587 10.0125 12.0208C10.0125 12.4546 10.1543 12.8133 10.4379 13.0969C10.7216 13.3805 11.0803 13.5224 11.514 13.5224H13.5161V15.5244C13.5161 15.9582 13.6579 16.3169 13.9416 16.6006C14.2252 16.8842 14.5839 17.026 15.0177 17.026Z" fill="#E8EAED"/>
</svg>
