<svg width="49" height="49" viewBox="0 0 49 49" fill="none" xmlns="http://www.w3.org/2000/svg">
<g clip-path="url(#clip0_533_2310)">
<g clip-path="url(#clip1_533_2310)">
<mask id="mask0_533_2310" style="mask-type:luminance" maskUnits="userSpaceOnUse" x="0" y="0" width="49" height="49">
<path d="M48.0067 24.0297C48.0067 10.7836 37.2686 0.0454102 24.0224 0.0454102C10.7762 0.0454102 0.0380859 10.7836 0.0380859 24.0297C0.0380859 37.2759 10.7762 48.014 24.0224 48.014C37.2686 48.014 48.0067 37.2759 48.0067 24.0297Z" fill="white"/>
</mask>
<g mask="url(#mask0_533_2310)">
<path d="M48.0067 24.0297C48.0067 10.7836 37.2686 0.0454102 24.0224 0.0454102C10.7762 0.0454102 0.0380859 10.7836 0.0380859 24.0297C0.0380859 37.2759 10.7762 48.014 24.0224 48.014C37.2686 48.014 48.0067 37.2759 48.0067 24.0297Z" fill="#C870FF"/>
<path d="M23.1578 8.83984C18.2313 8.83984 14.2357 13.5621 14.2357 19.3895C14.2357 21.6377 14.8318 23.7253 15.847 25.4373H30.4685C31.4839 23.7253 32.0798 21.6404 32.0798 19.3895C32.0771 13.5621 28.0841 8.83984 23.1578 8.83984Z" fill="black"/>
<path d="M40.749 31.9941C38.4245 27.0867 33.4517 26.074 31.2554 26.1829C31.2554 26.1829 27.4964 26.251 26.4297 28.1156C25.8118 29.1961 25.7519 29.4709 25.7519 29.4709L8.88214 29.7922C3.97747 30.5135 1.49248 34.8872 -0.148764 38.4067L-7.10296 53.8745C-10.0479 64.2173 2.26003 63.9724 2.26003 63.9724H18.7323H25.3788H36.6554H39.8479C52.3083 63.9724 51.9082 57.4891 49.5622 49.7074C49.5649 49.2339 42.3386 35.3472 40.749 31.9941Z" fill="#6983FF" stroke="black" stroke-width="0.5"/>
<path d="M44.9103 50.6982L33.7702 31.2483L25.953 32.9112L33.3402 57.1625C33.811 59.2554 35.6917 63.5504 39.4341 63.994" stroke="black" stroke-width="0.5" stroke-linecap="round"/>
<path d="M10.9292 41.7815L3.92059 54.1084H18.6972V63.7353" stroke="black" stroke-width="0.5" stroke-linecap="round"/>
<path d="M31.4404 27.1792L32.8993 31.3815L27.3006 32.5709L26.0948 27.5493C27.3358 24.7296 29.4126 20.0942 29.5379 19.7132C29.6659 19.3294 30.2319 19.1716 30.4852 19.4165C30.6102 18.9674 31.5657 19.1198 31.5657 19.7132C32.3495 19.4165 32.5129 20.0861 32.4965 20.3365C33.1443 20.0289 33.5526 20.5869 33.4056 21.017C33.3293 21.2401 33.0246 24.569 33.0246 24.569C32.5673 25.9979 31.4404 27.1792 31.4404 27.1792Z" fill="#FF85D2"/>
<path d="M32.2758 20.761L31.881 23.8992" stroke="#FF01A1" stroke-width="0.5" stroke-linecap="round"/>
<path d="M31.8786 23.8994C31.2144 23.9402 29.7364 24.4764 29.1241 26.2919" stroke="#FF01A1" stroke-width="0.5" stroke-linecap="round"/>
<path d="M31.3095 20.1404L30.915 23.2786" stroke="#FF01A1" stroke-width="0.5" stroke-linecap="round"/>
<path d="M30.5014 19.7732L30.1068 22.9114" stroke="#FF01A1" stroke-width="0.5" stroke-linecap="round"/>
<path d="M28.5282 18.4664L28.9635 15.3717C28.9174 15.0533 26.0486 12.3396 18.8576 14.8056C19.568 17.1028 18.5146 19.683 18.5146 19.683C17.0421 18.4664 15.1097 19.2693 15.0552 20.7609C15.1451 23.3166 17.2054 23.0907 18.1281 22.4729V29.8599C18.1281 29.8599 18.6235 31.2099 19.568 31.6807C22.7416 33.4417 24.851 30.9977 25.6239 29.8599V26.0874C26.5629 26.0874 28.5308 26.2045 29.3556 24.5551C30.1993 22.8621 29.3257 19.9062 28.5282 18.4664Z" fill="#FF85D2"/>
<path d="M29.3634 20.5051C29.7881 22.1627 31.1299 25.8806 27.126 26.0931" stroke="#FF01A1" stroke-width="0.5" stroke-linecap="round"/>
<path d="M25.6263 27.9957L22.1724 25.7175C22.1724 25.7175 23.2421 25.8998 23.928 25.9679C24.5922 26.036 25.6263 26.0686 25.6263 26.0686V27.9957Z" fill="black"/>
<path d="M25.5095 16.6321C25.7816 18.0365 24.7064 18.8612 24.7064 18.8612L25.9912 21.1285H24.4777" stroke="black" stroke-width="0.5" stroke-linecap="round"/>
<path d="M22.9211 16.1857C22.3686 16.0905 21.8106 16.1014 21.4241 16.2102" stroke="black" stroke-width="0.5" stroke-linecap="round"/>
<path d="M27.9482 16.311C27.3955 16.2157 26.8377 16.2266 26.4485 16.3355" stroke="black" stroke-width="0.5" stroke-linecap="round"/>
<path d="M24.3884 23.3794C23.893 23.1181 23.4575 22.767 23.218 22.4431" stroke="black" stroke-width="0.5" stroke-linecap="round"/>
<path d="M18.3354 21.3244L16.5036 19.8247" stroke="black" stroke-width="0.5" stroke-linecap="round"/>
<path d="M17.0338 20.282L16.122 21.1448" stroke="black" stroke-width="0.5" stroke-linecap="round"/>
<path d="M22.0938 18.7633C22.2787 18.7633 22.4285 18.6134 22.4285 18.4285C22.4285 18.2436 22.2787 18.0938 22.0938 18.0938C21.9089 18.0938 21.759 18.2436 21.759 18.4285C21.759 18.6134 21.9089 18.7633 22.0938 18.7633Z" fill="black"/>
<path d="M27.1185 18.8886C27.3035 18.8886 27.4534 18.7387 27.4534 18.5538C27.4534 18.3689 27.3035 18.219 27.1185 18.219C26.9338 18.219 26.7839 18.3689 26.7839 18.5538C26.7839 18.7387 26.9338 18.8886 27.1185 18.8886Z" fill="black"/>
</g>
</g>
</g>
<defs>
<clipPath id="clip0_533_2310">
<rect width="48.2915" height="48.05" fill="white" transform="translate(0 0.348633)"/>
</clipPath>
<clipPath id="clip1_533_2310">
<rect width="48.05" height="48.05" fill="white"/>
</clipPath>
</defs>
</svg>
