<?xml version="1.0" encoding="UTF-8"?>
<svg id="Capa_2" data-name="Capa 2" xmlns="http://www.w3.org/2000/svg" viewBox="0 0 38.91 38.91">
  <defs>
    <style>
      .cls-1 {
        fill: #262626;
      }

      .cls-1, .cls-2 {
        stroke-width: 0px;
      }

      .cls-2 {
        fill: #fff;
      }
    </style>
  </defs>
  <g id="Capa_1-2" data-name="Capa 1">
    <g>
      <rect class="cls-2" width="38.91" height="38.91"/>
      <g>
        <path class="cls-1" d="M24.73,13.05c-.65,0-1.17.52-1.17,1.17s.52,1.17,1.17,1.17,1.17-.52,1.17-1.17-.52-1.17-1.17-1.17Z"/>
        <path class="cls-1" d="M19.54,14.55c-2.71,0-4.91,2.2-4.91,4.91s2.2,4.91,4.91,4.91,4.91-2.2,4.91-4.91-2.2-4.91-4.91-4.91ZM19.54,22.6c-1.73,0-3.14-1.41-3.14-3.14s1.41-3.14,3.14-3.14,3.14,1.41,3.14,3.14-1.41,3.14-3.14,3.14Z"/>
        <path class="cls-1" d="M23.43,29.42h-7.96c-3.3,0-5.99-2.69-5.99-5.99v-7.96c0-3.3,2.69-5.99,5.99-5.99h7.96c3.3,0,5.99,2.69,5.99,5.99v7.96c0,3.3-2.69,5.99-5.99,5.99ZM15.48,11.36c-2.27,0-4.11,1.84-4.11,4.11v7.96c0,2.27,1.84,4.11,4.11,4.11h7.96c2.27,0,4.11-1.84,4.11-4.11v-7.96c0-2.27-1.84-4.11-4.11-4.11h-7.96Z"/>
      </g>
    </g>
  </g>
</svg>