<svg width="49" height="49" viewBox="0 0 49 49" fill="none" xmlns="http://www.w3.org/2000/svg">
<g clip-path="url(#clip0_533_2290)">
<g clip-path="url(#clip1_533_2290)">
<mask id="mask0_533_2290" style="mask-type:luminance" maskUnits="userSpaceOnUse" x="0" y="0" width="49" height="49">
<path d="M48.1085 24.0297C48.1085 10.7836 37.3703 0.0454102 24.1241 0.0454102C10.878 0.0454102 0.139832 10.7836 0.139832 24.0297C0.139832 37.2759 10.878 48.014 24.1241 48.014C37.3703 48.014 48.1085 37.2759 48.1085 24.0297Z" fill="white"/>
</mask>
<g mask="url(#mask0_533_2290)">
<path d="M48.1085 24.0297C48.1085 10.7836 37.3703 0.0454102 24.1241 0.0454102C10.878 0.0454102 0.139832 10.7836 0.139832 24.0297C0.139832 37.2759 10.878 48.014 24.1241 48.014C37.3703 48.014 48.1085 37.2759 48.1085 24.0297Z" fill="#FFC121"/>
<path d="M23.7302 8.91943C18.4669 8.91943 14.1982 13.9646 14.1982 20.1904C14.1982 22.5952 10.7698 28.6581 11.8544 30.4871H35.6437C36.7283 28.6581 33.2593 22.5923 33.2593 20.1904C33.2593 13.9646 28.9935 8.91943 23.7302 8.91943Z" fill="black"/>
<path d="M30.1039 12.4147C31.84 12.5834 34.4367 13.9908 35.6232 11.8506C36.164 10.8735 37.1528 9.36142 38.6008 9.00085M30.1039 12.4147C30.1534 11.1963 30.6914 8.65482 32.4507 8.23609C34.2099 7.81735 31.6191 10.8473 30.1039 12.4147ZM30.1039 12.4147C32.122 10.6903 36.0621 7.67776 35.6698 9.41959C35.2772 11.1643 31.7934 12.1413 30.1039 12.4147ZM30.1039 12.4147C31.805 13.2347 34.2244 16.2124 36.3966 13.5924C38.5718 10.9724 41.0637 11.2748 41.2733 12.7491L30.1039 12.4147Z" stroke="black" stroke-width="0.5" stroke-linecap="round"/>
<path d="M12.3658 28.446L36.8821 27.9778C39.1533 27.8675 44.2973 28.9142 46.7019 33.9884C46.6293 33.8286 55.603 49.7259 56.3474 52.0115C58.7842 56.5886 55.1319 63.7623 48.1792 61.2992C47.336 61.119 40.4385 57.3096 40.4385 57.3096L40.3861 60.8312C40.3861 60.8312 38.9321 60.046 36.2162 60.2669C33.5003 60.4908 30.348 63.3842 30.348 63.3842C30.9616 57.8186 24.5062 60.6072 22.4474 63.3842C22.4474 63.3842 20.5282 61.3982 18.4782 61.0551C15.6808 60.584 11.7348 63.7594 11.7348 63.7594V60.2727L5.4887 61.9129C1.22285 63.14 -3.46173 64.9515 -4.91859 65.0649C-10.4755 65.4984 -16.6315 59.8309 -12.0138 53.5325C-10.7518 52.1685 0.245806 37.3792 0.245806 37.3792C5.78821 30.3827 8.31226 28.446 12.3658 28.446Z" fill="#FF85D2"/>
<path d="M36.8819 27.9778L12.3656 28.446C8.31491 28.446 5.78799 30.3827 0.245565 37.3792C0.245565 37.3792 -1.67654 39.9642 -4.00574 43.0699L6.82319 50.8542L42.0493 49.502L52.0232 43.5641C49.4323 38.8098 46.6582 33.9012 46.6988 33.9913C44.2941 28.9142 39.153 27.8675 36.8819 27.9778Z" fill="black"/>
<path d="M12.3659 28.446L36.8821 27.9778C39.1533 27.8675 44.2973 28.9142 46.7019 33.9913C46.6382 33.8604 49.4239 38.7893 52.0263 43.5641L42.0524 49.502L6.82639 50.8542L-4.00256 43.0699C-1.67335 39.9613 0.248761 37.3792 0.248761 37.3792C5.78826 30.3827 8.31229 28.446 12.3659 28.446Z" stroke="black" stroke-width="0.5"/>
<path d="M11.7349 63.7649V60.2725L5.48877 61.9125L6.82639 50.854L12.3688 28.4458L16.3381 28.3702L17.3558 38.6466L30.3483 39.0653L32.468 28.065L36.885 27.9805L42.0553 49.5047L40.4356 57.3327L40.3832 60.8365C40.3832 60.8365 38.9294 60.0515 36.2135 60.2725C33.4974 60.4963 30.3454 63.3897 30.3454 63.3897C30.9589 57.8241 24.5033 60.6127 22.4446 63.3897C22.4446 63.3897 20.5254 61.4037 18.4754 61.0606C15.678 60.5895 11.7349 63.7649 11.7349 63.7649Z" fill="#6983FF"/>
<path d="M43.5495 48.6269L51.9734 43.5874L43.9274 49.6823L43.1685 49.3565L43.5495 48.6269Z" fill="black"/>
<path d="M4.1044 48.8154L-3.92133 43.1626L3.64788 49.842L4.42718 49.5745L4.1044 48.8154Z" fill="black"/>
<path d="M28.9116 41.3483C28.8592 40.6969 28.9203 39.4232 29.5891 39.5424C30.4236 39.6907 31.5024 41.3483 32.4301 40.729C32.8925 40.3566 32.3893 38.798 32.7472 38.353" stroke="black" stroke-width="0.5" stroke-linecap="round"/>
<path d="M11.9034 36.1864C11.851 35.5352 11.9121 34.2615 12.5809 34.3806C13.4155 34.5291 14.4943 36.1864 15.4219 35.5671C15.8843 35.195 15.3812 33.6362 15.7389 33.1914" stroke="black" stroke-width="0.5" stroke-linecap="round"/>
<path d="M43.4509 44.3461C43.3986 43.6949 43.4596 42.4212 44.1285 42.5403C44.963 42.6887 46.0418 44.3461 46.9695 43.7268C47.4319 43.3547 46.9287 41.7958 47.2865 41.3511" stroke="black" stroke-width="0.5" stroke-linecap="round"/>
<path d="M32.6948 31.1618C32.6426 30.5103 32.7037 29.2366 33.3723 29.3559C34.207 29.5042 35.2859 31.1618 36.2135 30.5422C36.6757 30.1701 36.1727 28.6115 36.5303 28.1665" stroke="black" stroke-width="0.5" stroke-linecap="round"/>
<path d="M12.2263 31.5895C12.174 30.9381 12.235 29.6644 12.9038 29.7837C13.7384 29.9319 14.8172 31.5895 15.7419 30.9699C16.2043 30.5979 15.7012 29.0392 16.0589 28.5942" stroke="black" stroke-width="0.5" stroke-linecap="round"/>
<path d="M16.8526 22.3159L16.9253 22.6154C17.0503 23.1301 17.3818 23.5692 17.8412 23.8309C17.3818 24.0926 17.0503 24.5317 16.9253 25.0465L16.8526 25.3459L16.7799 25.0465C16.6548 24.5317 16.3233 24.0926 15.8639 23.8309C16.3233 23.5692 16.6548 23.1301 16.7799 22.6154L16.8526 22.3159Z" fill="#FECB4B"/>
<path d="M17.9431 18.5359L17.1755 17.1837C17.4226 13.3831 19.7606 12.313 22.0258 12.313C22.4911 13.8193 26.7047 17.6228 28.2022 18.1607L28.5308 19.667C29.9004 18.5359 31.7731 18.7365 32.2266 20.0974C32.8401 22.508 30.8831 23.2175 28.7576 23.1274V25.3315V29.1291C28.7576 29.1291 27.9781 30.1034 27.1 30.5424C24.1486 32.1797 21.3657 30.1877 20.6475 29.1291V25.6225C19.7751 25.6225 17.946 25.7328 17.1784 24.1974C16.3874 22.6214 17.1987 19.8735 17.9431 18.5359Z" fill="#FF85D2"/>
<path d="M29.8828 22.3159L29.9554 22.6154C30.0805 23.1301 30.412 23.5692 30.8715 23.8309C30.412 24.0926 30.0805 24.5317 29.9554 25.0465L29.8828 25.3459L29.8101 25.0465C29.685 24.5317 29.3535 24.0926 28.8942 23.8309C29.3535 23.5692 29.685 23.1301 29.8101 22.6154L29.8828 22.3159Z" fill="#FECB4B"/>
<path d="M20.6299 27.1433L23.3575 25.3433C23.3575 25.3433 22.5113 25.4886 21.9705 25.541C21.4441 25.5934 20.627 25.6195 20.627 25.6195V27.1433H20.6299Z" fill="black"/>
<path d="M20.8021 17.2622C20.5345 18.6405 21.5901 19.4489 21.5901 19.4489L20.331 21.6735H21.8169" stroke="black" stroke-width="0.5" stroke-linecap="round"/>
<path d="M23.4126 17.2447C23.8488 17.1691 24.2908 17.1778 24.596 17.2651" stroke="black" stroke-width="0.5" stroke-linecap="round"/>
<path d="M18.7283 16.983C19.1644 16.9074 19.6065 16.9161 19.9118 17.0034" stroke="black" stroke-width="0.5" stroke-linecap="round"/>
<path d="M22.7325 23.034C23.125 22.8276 23.4682 22.5484 23.6572 22.2954" stroke="black" stroke-width="0.5" stroke-linecap="round"/>
<path d="M29.4906 21.0802L31.0724 19.792" stroke="black" stroke-width="0.5" stroke-linecap="round"/>
<path d="M30.6479 20.2573L31.4884 21.0803" stroke="black" stroke-width="0.5" stroke-linecap="round"/>
<path d="M24.067 19.2802C24.2131 19.2802 24.3316 19.1617 24.3316 19.0156C24.3316 18.8695 24.2131 18.751 24.067 18.751C23.9209 18.751 23.8024 18.8695 23.8024 19.0156C23.8024 19.1617 23.9209 19.2802 24.067 19.2802Z" fill="black"/>
<path d="M19.3827 19.0185C19.5288 19.0185 19.6473 18.9 19.6473 18.7539C19.6473 18.6077 19.5288 18.4893 19.3827 18.4893C19.2365 18.4893 19.118 18.6077 19.118 18.7539C19.118 18.9 19.2365 19.0185 19.3827 19.0185Z" fill="black"/>
</g>
</g>
</g>
<defs>
<clipPath id="clip0_533_2290">
<rect width="48.2915" height="48.05" fill="white" transform="translate(0 0.298828)"/>
</clipPath>
<clipPath id="clip1_533_2290">
<rect width="48.2915" height="48.05" fill="white"/>
</clipPath>
</defs>
</svg>
